<?xml version="1.0" encoding="UTF-8" standalone="no"?>
<svg
    xmlns:dc="http://purl.org/dc/elements/1.1/"
    xmlns:cc="http://creativecommons.org/ns#"
    xmlns:rdf="http://www.w3.org/1999/02/22-rdf-syntax-ns#"
    xmlns="http://www.w3.org/2000/svg"
    xmlns:xlink="http://www.w3.org/1999/xlink"
    xmlns:sodipodi="http://sodipodi.sourceforge.net/DTD/sodipodi-0.dtd"
    xmlns:inkscape="http://www.inkscape.org/namespaces/inkscape"
    width="55.5556in"
    height="37.0417in"
    viewBox="0 0 4000 2667"
    version="1.1"
    id="svg3901"
    sodipodi:docname="bg.svg"
    inkscape:version="0.92.5 (2060ec1f9f, 2020-04-08)">
    <metadata
        id="metadata3907">
        <rdf:RDF>
            <cc:Work
                rdf:about="">
                <dc:format>image/svg+xml</dc:format>
                <dc:type
                    rdf:resource="http://purl.org/dc/dcmitype/StillImage"/>
                <dc:title></dc:title>
            </cc:Work>
        </rdf:RDF>
    </metadata>
    <defs
        id="defs3905">
        <linearGradient
            inkscape:collect="always"
            id="linearGradient3023">
            <stop
                style="stop-color:#5d1198;stop-opacity:0.8392157"
                offset="0"
                id="stop3019"/>
            <stop
                style="stop-color:#2e2463;stop-opacity:0.91176468"
                offset="1"
                id="stop3021"/>
        </linearGradient>
        <linearGradient
            inkscape:collect="always"
            xlink:href="#linearGradient3023"
            id="linearGradient4477"
            x1="570.97162"
            y1="1353.5225"
            x2="1937.0754"
            y2="1213.6816"
            gradientUnits="userSpaceOnUse"
            gradientTransform="matrix(0.24861114,0,0,0.32951929,-2.7515881,-313.92485)"/>
    </defs>
    <sodipodi:namedview
        pagecolor="#ffffff"
        bordercolor="#666666"
        borderopacity="1"
        objecttolerance="10"
        gridtolerance="10"
        guidetolerance="10"
        inkscape:pageopacity="0"
        inkscape:pageshadow="2"
        inkscape:window-width="1920"
        inkscape:window-height="1016"
        id="namedview3903"
        showgrid="false"
        inkscape:zoom="1.0618664"
        inkscape:cx="283.39137"
        inkscape:cy="3374.6316"
        inkscape:window-x="0"
        inkscape:window-y="27"
        inkscape:window-maximized="1"
        inkscape:current-layer="svg3901"/>
    <path
        style="fill:url(#linearGradient4477);fill-opacity:1;stroke:#000000;stroke-width:0;stroke-linecap:butt;stroke-linejoin:miter;stroke-miterlimit:4;stroke-dasharray:none;stroke-opacity:1"
        d="M -0.02750565,211.09494 C 256.55757,183.7818 231.43893,44.738652 407.58544,-0.06162063 L -0.07565876,0.1015215 Z"
        id="path4469"
        inkscape:connector-curvature="0"
        sodipodi:nodetypes="cccc"/>
    <path
        inkscape:connector-curvature="0"
        style="fill:#ffffff;fill-opacity:0.96078431;stroke:#000000;stroke-width:0;stroke-miterlimit:4;stroke-dasharray:none"
        d="m 51.774052,61.363641 c 0.134191,1.120643 0.316124,3.398811 0.718696,4.32188 1.112672,2.540732 4.014464,2.722881 6.270545,2.77845 -1.383843,0.605079 -2.76783,0.06763 -4.473165,0.879566 -2.325985,1.1083 -2.233729,4.158692 -2.516076,6.529638 -0.503216,-1.398488 -0.128346,-2.64555 -0.715424,-4.32188 -1.020419,-2.908135 -3.902709,-2.778453 -6.27342,-2.778453 2.01846,-0.910727 4.523216,-0.10822 5.912633,-2.482266 0.972885,-1.667072 0.522674,-3.389524 1.076211,-4.926935 z"
        id="path877"/>
    <path
        inkscape:connector-curvature="0"
        style="fill:#ffffff;fill-opacity:1;stroke:#000000;stroke-width:0;stroke-miterlimit:4;stroke-dasharray:none"
        d="m 288.42176,180.79446 c 0.20035,0.85159 0.0693,1.79023 0.44983,2.60022 0.62626,1.33395 2.56682,1.41839 3.83444,1.4301 -0.74973,0.30683 -2.69029,-0.0766 -3.57233,1.06366 -0.66406,0.8581 -0.45111,2.01774 -0.71194,2.96685 l -0.39444,-2.34026 c -0.58719,-1.62128 -2.49241,-1.56018 -3.88982,-1.56018 0.97278,-0.40305 2.63111,-0.0454 3.47913,-1.05433 0.82786,-0.98422 0.53296,-2.39749 0.80513,-3.10606 z"
        id="path871"/>
    <path
        inkscape:connector-curvature="0"
        style="fill:#ffffff;fill-opacity:1;stroke:#000000;stroke-width:0;stroke-miterlimit:4;stroke-dasharray:none"
        d="m 164.20614,140.46359 c 0.20035,1.1154 0.0693,2.34482 0.44982,3.40574 0.62626,1.7472 2.56681,1.8578 3.83443,1.87313 -0.74974,0.40189 -2.69029,-0.10029 -3.57232,1.39318 -0.66406,1.12392 -0.4511,2.6428 -0.71193,3.88594 l -0.39444,-3.06525 c -0.58719,-2.12354 -2.49241,-2.0435 -3.88981,-2.0435 0.97277,-0.52791 2.6311,-0.0595 3.47912,-1.38096 0.82786,-1.28911 0.53295,-3.1402 0.80513,-4.06828 z"
        id="path871-6"/>
    <path
        inkscape:connector-curvature="0"
        style="fill:#ffffff;fill-opacity:1;stroke:#000000;stroke-width:0;stroke-miterlimit:4;stroke-dasharray:none"
        d="m 52.062767,172.98605 c 0.0049,1.5948 0.173515,4.62842 1.180261,5.78367 1.054196,1.20784 3.760149,1.35436 5.203967,1.35436 -0.774312,0.35127 -2.738501,0.19157 -4.09229,0.76825 -1.862867,0.79646 -1.972591,2.53039 -2.154297,4.49152 -0.09331,0.99745 -0.134362,0.98232 -0.137641,2.0662 -0.273355,-0.78895 -0.171774,-3.09194 -0.646478,-4.50829 -0.875807,-2.60543 -3.830497,-2.62974 -5.901284,-2.62974 1.060777,-0.48277 3.845293,0.0111 5.203967,-1.5423 1.365255,-1.561 0.919819,-4.55705 1.343795,-5.78367 z"
        id="path867"/>
    <path
        inkscape:connector-curvature="0"
        style="fill:#ffffff;fill-opacity:0.96078431;stroke:#000000;stroke-width:0;stroke-miterlimit:4;stroke-dasharray:none"
        d="m 154.96669,50.448101 c 5.43035,0.06721 4.8363,7.165784 0.71107,7.587744 -2.81298,0.28751 -4.71906,-2.830481 -3.60952,-5.4742 0.57253,-1.359188 1.62176,-1.799882 2.89845,-2.113544 z"
        id="path881"/>
    <path
        inkscape:connector-curvature="0"
        style="fill:#ffffff;fill-opacity:1;stroke:#000000;stroke-width:0;stroke-miterlimit:4;stroke-dasharray:none"
        d="m 258.87984,31.790871 c 4.26103,0.03693 4.18099,3.959314 0.82792,4.377818 -3.76703,0.469785 -5.17449,-3.61672 -0.82792,-4.377818 z"
        id="path895"/>
    <path
        inkscape:connector-curvature="0"
        style="fill:#ffffff;fill-opacity:1;stroke:#000000;stroke-width:0;stroke-miterlimit:4;stroke-dasharray:none"
        d="m 107.04428,101.08983 c 0.007,1.88189 0.24243,5.46158 1.64904,6.82478 1.47289,1.42526 5.2536,1.59816 7.27086,1.59816 -1.08185,0.4145 -3.82616,0.22605 -5.71765,0.90654 -2.60276,0.93983 -2.75606,2.98588 -3.00994,5.30003 -0.13036,1.177 -0.18773,1.15915 -0.19231,2.43813 -0.38191,-0.93097 -0.24,-3.64851 -0.90324,-5.31982 -1.22366,-3.07442 -5.35188,-3.10311 -8.245141,-3.10311 1.48209,-0.56968 5.372561,0.0132 7.270861,-1.81993 1.90751,-1.84199 1.28515,-5.37735 1.87752,-6.82478 z"
        id="path867-2"/>
</svg>
