<?xml version="1.0" encoding="UTF-8" standalone="no"?>
<svg
    xmlns:osb="http://www.openswatchbook.org/uri/2009/osb"
    xmlns:dc="http://purl.org/dc/elements/1.1/"
    xmlns:cc="http://creativecommons.org/ns#"
    xmlns:rdf="http://www.w3.org/1999/02/22-rdf-syntax-ns#"
    xmlns:svg="http://www.w3.org/2000/svg"
    xmlns="http://www.w3.org/2000/svg"
    xmlns:xlink="http://www.w3.org/1999/xlink"
    xmlns:sodipodi="http://sodipodi.sourceforge.net/DTD/sodipodi-0.dtd"
    xmlns:inkscape="http://www.inkscape.org/namespaces/inkscape"
    width="55.5556in"
    height="37.0417in"
    viewBox="0 0 4000 2667"
    version="1.1"
    id="svg3761"
    sodipodi:docname="error.svg"
    inkscape:version="0.92.5 (2060ec1f9f, 2020-04-08)">
    <metadata
        id="metadata3767">
        <rdf:RDF>
            <cc:Work
                rdf:about="">
                <dc:format>image/svg+xml</dc:format>
                <dc:type
                    rdf:resource="http://purl.org/dc/dcmitype/StillImage"/>
                <dc:title/>
            </cc:Work>
        </rdf:RDF>
    </metadata>
    <defs
        id="defs3765">
        <linearGradient
            inkscape:collect="always"
            id="linearGradient3065">
            <stop
                style="stop-color:#aeaeae;stop-opacity:1;"
                offset="0"
                id="stop3061"/>
            <stop
                style="stop-color:#aeaeae;stop-opacity:0;"
                offset="1"
                id="stop3063"/>
        </linearGradient>
        <linearGradient
            inkscape:collect="always"
            id="linearGradient3023">
            <stop
                style="stop-color:#5d1198;stop-opacity:1"
                offset="0"
                id="stop3019"/>
            <stop
                style="stop-color:#2e2463;stop-opacity:0.99509805"
                offset="1"
                id="stop3021"/>
        </linearGradient>
        <linearGradient
            inkscape:collect="always"
            id="linearGradient3015">
            <stop
                style="stop-color:#ffc547;stop-opacity:1;"
                offset="0"
                id="stop3011"/>
            <stop
                style="stop-color:#cb5172;stop-opacity:1"
                offset="1"
                id="stop3013"/>
        </linearGradient>
        <linearGradient
            inkscape:collect="always"
            id="linearGradient3001">
            <stop
                style="stop-color:#89413e;stop-opacity:1"
                offset="0"
                id="stop2997"/>
            <stop
                id="stop3005"
                offset="0.40770003"
                style="stop-color:#df815b;stop-opacity:1"/>
            <stop
                style="stop-color:#e08658;stop-opacity:0.86274511"
                offset="1"
                id="stop2999"/>
        </linearGradient>
        <linearGradient
            inkscape:collect="always"
            id="linearGradient2981">
            <stop
                style="stop-color:#000000;stop-opacity:1;"
                offset="0"
                id="stop2977"/>
            <stop
                id="stop2995"
                offset="0.30259186"
                style="stop-color:#d56766;stop-opacity:1"/>
            <stop
                style="stop-color:#e08658;stop-opacity:0.86274511"
                offset="1"
                id="stop2979"/>
        </linearGradient>
        <linearGradient
            id="linearGradient1223"
            osb:paint="gradient">
            <stop
                style="stop-color:#000000;stop-opacity:1;"
                offset="0"
                id="stop1219"/>
            <stop
                style="stop-color:#000000;stop-opacity:0;"
                offset="1"
                id="stop1221"/>
        </linearGradient>
        <linearGradient
            inkscape:collect="always"
            id="linearGradient1146">
            <stop
                style="stop-color:#f5bc4a;stop-opacity:0.92156863"
                offset="0"
                id="stop1142"/>
            <stop
                style="stop-color:#d15b6e;stop-opacity:1"
                offset="1"
                id="stop1144"/>
        </linearGradient>
        <linearGradient
            inkscape:collect="always"
            xlink:href="#linearGradient1146"
            id="linearGradient1148"
            x1="786.24811"
            y1="647.01318"
            x2="832.7666"
            y2="593.64532"
            gradientUnits="userSpaceOnUse"
            gradientTransform="matrix(0.30026847,-0.94736787,-0.92930118,-0.29454223,769.75855,2244.074)"/>
        <linearGradient
            inkscape:collect="always"
            xlink:href="#linearGradient1146"
            id="linearGradient1191"
            x1="732.16602"
            y1="638.9549"
            x2="924.36841"
            y2="638.9549"
            gradientUnits="userSpaceOnUse"
            gradientTransform="matrix(0.30026847,-0.94736787,-0.92930118,-0.29454223,769.75855,2244.074)"/>
        <linearGradient
            inkscape:collect="always"
            xlink:href="#linearGradient1146"
            id="linearGradient1199"
            x1="2653.8799"
            y1="1879.8176"
            x2="3589.3162"
            y2="2505.3914"
            gradientUnits="userSpaceOnUse"/>
        <radialGradient
            inkscape:collect="always"
            xlink:href="#linearGradient2981"
            id="radialGradient2983"
            cx="1579.5646"
            cy="2057.6713"
            fx="1579.5646"
            fy="2057.6713"
            r="1320.9155"
            gradientTransform="matrix(1,0,0,0.390863,0,1253.4037)"
            gradientUnits="userSpaceOnUse"/>
        <linearGradient
            inkscape:collect="always"
            xlink:href="#linearGradient3001"
            id="linearGradient3007"
            x1="258.64911"
            y1="2057.6714"
            x2="2900.48"
            y2="2057.6714"
            gradientUnits="userSpaceOnUse"/>
        <linearGradient
            inkscape:collect="always"
            xlink:href="#linearGradient3015"
            id="linearGradient3017"
            x1="1352.7386"
            y1="2219.0017"
            x2="3349.8894"
            y2="2874.4507"
            gradientUnits="userSpaceOnUse"/>
        <radialGradient
            inkscape:collect="always"
            xlink:href="#linearGradient3023"
            id="radialGradient3025"
            cx="2459.0237"
            cy="1028.7079"
            fx="2459.0237"
            fy="1028.7079"
            r="2147.6837"
            gradientTransform="matrix(0.72549945,-0.57825376,0.68359408,0.85766343,-749.74964,2133.314)"
            gradientUnits="userSpaceOnUse"/>
        <linearGradient
            inkscape:collect="always"
            xlink:href="#linearGradient3065"
            id="linearGradient3067"
            x1="512.75146"
            y1="459.36316"
            x2="620.30145"
            y2="321.23465"
            gradientUnits="userSpaceOnUse"
            gradientTransform="matrix(0.30026847,-0.94736787,-0.92930118,-0.29454223,769.75853,2244.074)"/>
        <linearGradient
            inkscape:collect="always"
            xlink:href="#linearGradient3015"
            id="linearGradient2521"
            x1="590.552"
            y1="316.5209"
            x2="488.12152"
            y2="406.14661"
            gradientUnits="userSpaceOnUse"
            gradientTransform="matrix(0.99381439,0,0,0.97486194,-1906.623,-1411.802)"/>
    </defs>
    <sodipodi:namedview
        pagecolor="#ffffff"
        bordercolor="#666666"
        borderopacity="1"
        objecttolerance="10"
        gridtolerance="10"
        guidetolerance="10"
        inkscape:pageopacity="0"
        inkscape:pageshadow="2"
        inkscape:window-width="1920"
        inkscape:window-height="1016"
        id="namedview3763"
        showgrid="false"
        inkscape:zoom="0.0625"
        inkscape:cx="-2415.7495"
        inkscape:cy="868.246"
        inkscape:window-x="0"
        inkscape:window-y="27"
        inkscape:window-maximized="1"
        inkscape:current-layer="svg3761"/>
    <path
        style="fill:none;stroke:#000000;stroke-width:0;stroke-miterlimit:4;stroke-dasharray:none"
        d="m 4672.0039,0 c -14.6667,0.02666669 -42.6273,3.1996855 -57.334,5.6796875 l -8,2.2929687 h -9.332 l -22.668,5.0136718 -76.2265,15.734375 -18.0664,3.839844 -40,10.666015 -12.586,4.160157 -49.1211,13.080078 c -38.96,12.173343 -76.8934,26.652409 -114.7734,41.732423 l -56.8399,23.36133 -22.5332,11.17383 -20.3066,9.27929 -13.9199,7.78711 -51.4004,25.51953 -43.4668,25.86719 -50.8008,30.38672 -27.293,18.8789 -27.8261,17.72071 -20.8008,15.51953 -49.3867,36.12109 -17.3067,12.67969 -29.2519,24.3457 -38.7344,30.26758 -23.0391,21.24024 -7.7597,5.49218 -21.8946,18.38672 -12.5605,12.48047 -9.6387,7.73242 -13.4805,13.30664 -16.373,13.16016 -14.2676,14.7207 -11.332,9.01367 -15.3613,15.16016 -66.9864,63.54688 -36.8925,37.75976 -20.4414,18.24024 -98.6661,98.65234 -29.8925,31.62695 -74.1075,73.72071 -17.3867,18.21289 -18.1875,15.80078 -29.0664,26.3457 -14.7187,14.29297 -48.4004,38.50781 -44.4805,33.83985 -20.9199,13.16014 -59.1074,37.5332 -22.3985,11.334 -51.6133,25.8516 -38.2949,17.0683 -23.4258,7.8789 c -40,14.4667 -80.8146,27.6268 -122.6679,35.1602 l -8,1.9863 -22.666,3.3613 -8,2.2403 h -12 l -10.6661,2.7187 h -12 l -20,1.3594 -17.3339,1.334 -26.6661,1.334 h -21.3339 l -20,-1.334 -30.6661,-1.334 -18.6679,-1.6387 c -4,0.2667 -9.3322,0.6 -13.1055,0 l -5.7871,-2.373 h -11.7734 l -24,-4.9746 -9.2129,-0.6934 -7.0137,-2.0137 c -39.5734,-7.6533 -77.7068,-19.292 -115.7734,-32.7187 -25.2934,-8.92 -51.0809,-17.5876 -75.1875,-29.4941 l -27.252,-14.1465 -9.5742,-6.5332 -33.5332,-19.4004 c -29.5734,-15.32 -60.3725,-25.893 -93.1192,-31.6797 l -9.3339,-2.3203 h -8 c -8.2534,-0.92 -5.2661,-2.653 -18.6661,-2.6797 h -50.6679 c -13.4134,0.027 -10.346,1.7465 -18.666,2.5332 -37.7467,3.5467 -74.4409,17.0409 -108.2676,33.9609 -14.5334,7.2667 -42.5198,22.6652 -53.0664,34.1719 -20.64,-17.0267 -53.1075,-30.7199 -78.4942,-39.2266 -17.64,-5.9066 -35.2125,-11.5186 -53.5058,-14.9453 l -10.5469,-0.8398 -5.8262,-2.041 c -3.44,-0.5334 -9.2542,-0.28 -12.9609,0 l -26.666,-2.8926 -28,2.6133 c -18.56,0.027 -60.0807,8.6533 -77.334,16 -0.4,-16.0534 -11.5734,-47.74788 -18.3867,-62.89456 -9.2667,-20.62669 -26.4258,-47.29343 -41.7325,-63.77344 -7.1866,-7.73334 -14.8945,-13.83888 -23.2011,-20.18555 l -18.2129,-14.49414 c -31.7867,-22.03651 -85.348,-38.49793 -113.1328,-38.65234 h -38.666 c -11.2001,0.0267 -44.68,6.97184 -56,10.47851 -4.4267,1.38667 -26.6407,11.96019 -30.0274,10.85352 -2.7467,-0.89333 -7.6036,-12.16026 -9.0703,-14.93359 -5.7733,-10.85335 -13.8991,-17.53047 -22.2324,-26.73047 -19.3252,-16.38564 -29.9652,-25.20602 -46.5508,-32.00196 -8.2667,-1.8 -3.1604,-2.32065 -14.7871,-2.33398 h -28 c -5.72,0.0933 -22.0845,4.76935 -26.1953,6.85742 L 1108,784 c -4.2533,-9.52001 -7.8797,-11.31903 -13.6797,-18.3457 l -20.6797,-25.42774 -11.334,-12.42578 c -1.68,-3.30667 1.6539,-9.25315 2.5606,-13.14648 1.2,-5.14667 0.1605,-9.3744 -1.1328,-14.42774 -2.56,-10.12001 -12.7195,-14.01262 -14.4395,-19.27929 -1.2266,-3.72001 2.0662,-6.50726 3.8262,-12.94727 l 6.7871,-34.66602 c 2.52,-5.81333 11.3318,-13.41322 16.0918,-18.22656 l 34.2285,-35.54687 c 12.5467,-12.36001 18.7479,-18.96028 22.8653,-35.56055 0.2665,-3.65334 -0.3603,-7.07935 -0.9336,-10.66602 -3.8134,-23.33335 -23.653,-25.8809 -42.5997,-31.26757 L 1060,492.94727 l -28.5586,-8.04102 -64.05859,-18.5 c -9.82667,-2.8 -19.12294,-5.22431 -30.04883,-8.89844 l -34.3457,-38.82812 -9.60156,-7.17188 -10.7461,-10.54687 -25.30664,-20.52149 -16.65234,-11.29297 C 826.65496,358.73314 812.33335,351.02053 796,344.36719 778.09332,337.08718 756.42733,331.86687 737.33398,330.54688 L 716,328 c -31.76003,-0.36 -67.94599,-2.23896 -98.66602,4.73438 -7.42667,1.67999 -21.31999,2.86593 -27,7.58593 -6.2,5.13334 -7.14711,17.48034 -7.7871,25.01367 L 580.42773,376 l -3.09375,26.66602 c -0.37333,32.44002 -0.37383,61.25395 5.82618,93.33398 l 4.30664,14.66797 c 8.98667,31.36002 16.24061,47.67893 31.64062,76.26562 l 11.64063,21.05274 c 12.05334,19.06668 35.46597,45.47988 51.97265,61.22656 7.70668,7.34667 22.05253,13.68179 26.50586,22.8418 6.30667,12.98667 15.20146,51.25327 18.82813,66.61328 l 17.66601,62.66601 c 3.21334,11.66668 9.77362,40.97263 16.62696,49.2793 11.33334,13.76001 31.34631,17.53326 46.98632,8.91992 9.30668,-5.12 15.92075,-14.57314 23.10743,-22.14648 l 29.21289,-28 c 3.54667,-3.37334 13.77281,-14.46641 17.13281,-16.06641 4.34667,-2.08 10.88085,-0.10666 15.88086,0 8.98667,0.17334 15.73205,-1.19945 24.02539,-4.43945 4.08,-1.58667 10.82817,-6.79974 14.21484,-6.06641 2.80001,0.61334 6.90612,5.72003 9.43946,7.69336 4.61333,3.58667 7.999,4.06667 13.65234,4 h 11.77344 l 5.73437,-1.51953 c 1.37334,-0.33333 2.10544,-0.29333 3.41211,0 l 17.74805,15.57227 14.34573,12.61328 7.6406,5.50781 7.4004,6.97266 c 3.8133,3.14667 8.5871,4.59945 11.0937,9.43945 1.8134,3.50667 0.8516,11.30755 0.8516,15.57422 -0.04,26.00002 -1.8661,38.89326 9.5605,63.61328 12.9601,28.04002 34.348,47.29231 62.668,59.34575 l 26.4395,7.707 c -4.1867,5.8533 -4.6663,16.9333 -5.5996,24 l -2.2403,10.666 v 34.668 c -0.1466,11.48 0.7588,9.2126 2.1055,18.666 l 0.748,10.666 c 1.9334,11.8267 5.6131,23.681 9.3731,35.041 4.6933,14.2134 9.5598,27.919 17.1465,40.959 5.2133,8.9733 11.0391,16.8949 17.4258,24.9883 l 4.7207,6.959 7.8261,8.0937 9.8946,11.7324 c 13.9333,13.6934 29.5986,24.6282 46.332,34.5215 l 12.4805,7.6934 c 35.5867,18.4267 76.067,26.0137 115.7871,26.0137 -1.5334,8.6133 -2.6127,7.5586 -2.666,17.332 v 54.668 c 0.1066,8.5466 1.1049,7.7193 2.2382,14.666 l 0.7071,9.334 1.8945,8 5.293,24 c 11,39.04 26.5325,77.7857 51.1992,110.4257 13.44,17.7867 32.9064,41.0138 49.7598,55.4805 l 17.1464,14.2539 c 2.3334,1.8667 6.7878,4.3988 7.5078,7.4121 0.5467,2.2667 -1.2272,6.1878 -1.9472,8.4278 l -4.8672,18.666 c -3.1467,11.7333 -8.785,43.0393 -8.9316,54.666 v 42.668 c 0.013,9.24 3.0531,27.8653 4.8398,37.332 l 1.0918,9.334 c 6.9067,32.04 18.6671,65.8793 34.4805,94.666 33.6415,52.6771 78.9444,107.3846 79.5879,168.0019 -11.0885,49.4219 -22.2991,69.6595 -45.1231,128.5391 -3.7844,3.6124 -6.0672,8.9823 -9.5156,13.0703 -10.5166,12.4671 -8.6453,14.6216 -70.211,57.625 -40.4027,30.5272 -91.3051,54.6569 -128.3242,88.5781 l -14.5996,9.2539 c -13.4,10.7201 -26.5078,22.9205 -38.2012,35.4805 -103.4097,97.6841 -117.1638,234.836 -171.707,360.8399 l -12.6933,34.6132 -8.3868,17.4532 -39.5586,78.3203 c -36.7166,65.4036 -84.08032,120.0097 -132.45504,176.7871 -38.48708,44.738 -79.90645,76.0644 -122.67578,111.9414 -59.1151,44.8828 -120.00401,84.8933 -181.72461,125.3457 -66.23648,38.3834 -111.23333,58.9353 -166.85156,89.9648 l -32.10547,15.0879 -20.91797,9.0586 C 337.63579,3440.8212 37.750498,3528.4071 0,3556.002 H 5333.3379 V 0 Z"
        id="Sélection"
        transform="scale(0.7499994)"/>
    <path
        style="fill:url(#radialGradient3025);fill-opacity:1;stroke:#000000;stroke-width:0;stroke-miterlimit:4;stroke-dasharray:none"
        d="m 1837.4795,845.00033 -0.999,1.9995 c 2.9,11.93999 1.5602,29.95992 -0.7998,41.99996 -11.68,59.51996 -65.5006,103.7004 -126.2006,103.00042 -11.41,-0.14002 -22.6408,-2.2296 -33.7206,-4.82962 -13.0519,-2.56335 -20.8341,-7.66942 -33.2798,-15.39989 -9.33,-5.88997 -20.1092,-15.30021 -27.4892,-23.4902 -26.0401,-28.87003 -36.6911,-70.38115 -29.0611,-108.28117 1.58,-7.88002 3.8711,-15.58948 6.9712,-22.99948 5.7913,-23.79043 45.5817,-36.21691 59.1546,-53.61555 l -0.016,-0.007 c -176.4119,-33.92493 -225.6766,52.26824 -230.8098,42.23743 -332.5815,159.10717 -415.2043,838.37937 -520.14029,1104.47557 102.41419,47.2808 288.14399,24.549 437.39029,14.7392 67.2149,-6.5097 134.1237,-12.7361 200.3593,-26.4046 278.2942,-64.5314 551.4737,-178.9904 808.2959,-267.2886 188.0716,-63.2981 372.0652,-110.4049 556.5745,-75.3314 264.8405,-91.6898 577.5992,-36.0607 746.0478,106.2386 108.7802,95.4693 191.1902,173.2801 353.4702,184.1215 V 1.6149076 C 3788.298,0.3235769 3477.8076,6.5921905 3372.0764,18.069215 3004.5469,57.964213 2845.1721,158.01312 2576.8294,442.41109 2328.1444,705.97518 2097.4489,935.01066 1837.4795,845.00033 Z"
        id="path899"
        inkscape:connector-curvature="0"
        sodipodi:nodetypes="ccccccccccccccccccccssc"/>
    <path
        style="fill:#ffffff;stroke:#000000;stroke-width:0;stroke-miterlimit:4;stroke-dasharray:none;fill-opacity:1"
        d="m 4328.6426,140 2.8672,13.33398 c 4.0266,10.25335 12.6801,11.78667 22.4668,12 V 168 c -9.7867,0.21333 -18.4402,1.74666 -22.4668,12 l -2.8672,13.33398 -3.5332,-14.66796 C 4320.896,169.42601 4312.364,168.2 4303.3105,168 v -2.66602 c 9.0535,-0.2 17.5855,-1.42796 21.7989,-10.66796 z"
        id="path897"
        transform="scale(0.7499994)"/>
    <path
        style="fill:#ffffff;stroke:#000000;stroke-width:0;fill-opacity:1;stroke-miterlimit:4;stroke-dasharray:none"
        d="m 4697.9766,277.90625 c 20.5866,0.24 20.2,25.73312 4,28.45313 -18.2001,3.05333 -25.0001,-23.50646 -4,-28.45313 z"
        id="path895"
        transform="scale(0.7499994)"/>
    <path
        style="fill:#ffffff;stroke:none;stroke-width:1.33333445;fill-opacity:1"
        d="m 4389.875,466.85156 c 2.7621,0.0932 5.3199,0.85469 7.7949,3.05469 6.7067,5.94667 5.8143,19.13398 -5.039,22.33398 -15.1734,4.48001 -25.0413,-17.91999 -7.9747,-25 1.8301,-0.26 3.5615,-0.44461 5.2188,-0.38867 z"
        id="path893"
        transform="scale(0.7499994)"/>
    <path
        style="fill:#ffffff;stroke:#000000;stroke-width:0;stroke-miterlimit:4;stroke-dasharray:none;fill-opacity:0.96078432"
        d="m 3684.6426,777.33398 c 0.04,13.88002 1.5606,24.40004 17.334,27.69336 3.7066,0.38668 6.946,0.29334 10.666,0 -7.12,3.93335 -11.2787,2.14641 -17.3321,5.06641 -10.7733,5.21334 -10.6546,15.61292 -10.6679,25.90625 -4.4934,-6.93334 -1.3198,-10.22536 -4.7598,-17.33203 -5.16,-10.66666 -18.1075,-11.52 -28.5742,-12 7.48,-2.96 19.9477,0.46653 27.041,-9.4668 4.8,-6.73335 1.7463,-12.84051 6.293,-19.86719 z"
        id="path891"
        transform="scale(0.7499994)"/>
    <path
        style="fill:#ffffff;stroke:#000000;stroke-width:0;stroke-miterlimit:4;stroke-dasharray:none;fill-opacity:0.96078432"
        d="m 4819.3105,881.33398 c 0.027,7.77334 0.559,20.46745 6.959,25.80079 5.5867,4.65335 14.161,4.83856 21.041,4.86523 v 2.66797 c -6.88,0.0267 -15.4543,0.21188 -21.041,4.86523 -6.4,5.33334 -6.9323,18.02744 -6.959,25.80078 L 4815.791,928 c -4.1733,-12.38666 -14.6411,-13.29203 -25.8144,-13.33203 V 912 c 10.32,-0.0267 21.0672,-0.81331 25.4804,-12 z"
        id="path889"
        transform="scale(0.7499994)"/>
    <path
        style="fill:#ffffff;stroke:#000000;stroke-width:0;fill-opacity:0.96078432;stroke-miterlimit:4;stroke-dasharray:none"
        d="m 4259.0879,1088.1973 c 2.76,0.014 5.3733,0.7679 7.6484,3.0429 4.7466,4.7467 4.3729,15.268 -3.4804,18.4414 -13.9467,5.6533 -22.932,-13.1341 -9.252,-20.8808 1.72,-0.355 3.428,-0.6123 5.084,-0.6035 z"
        id="path887"
        transform="scale(0.7499994)"/>
    <path
        style="fill:#ffffff;stroke:#000000;stroke-width:0;fill-opacity:1;stroke-miterlimit:4;stroke-dasharray:none"
        d="m 1287.3086,1176 c 0.067,20.7467 5.8527,26.2146 26.666,26.668 l -16,3.5332 c -10.28,4.6933 -10.6393,14.6934 -10.666,24.4668 l -3.8008,-16 c -4.6933,-10.8667 -15.4798,-10.6547 -25.5332,-10.668 7.76,-3.1067 16.9995,-0.7593 23.1328,-8.2793 4.6134,-5.6533 3.5879,-13.334 6.2012,-19.7207 z"
        id="path885"
        transform="scale(0.7499994)"/>
    <path
        style="fill:#ffffff;stroke:#000000;stroke-width:0;stroke-miterlimit:4;stroke-dasharray:none;fill-opacity:1"
        d="m 1603.0625,1282.1777 c 10.0736,-0.011 9.3937,10.9026 2.832,12.9434 -6.32,1.9733 -13.8665,-7.0396 -3.8398,-12.9063 0.3475,-0.024 0.6828,-0.037 1.0078,-0.037 z"
        id="path883"
        transform="scale(0.7499994)"/>
    <path
        style="fill:#ffffff;stroke:#000000;stroke-width:0;stroke-miterlimit:4;stroke-dasharray:none;fill-opacity:0.96078432"
        d="m 3549.9766,1288.5742 c 20.36,0.24 18.1327,25.5871 2.666,27.0938 -10.5467,1.0266 -17.6932,-10.1069 -13.5332,-19.5469 2.1466,-4.8533 6.0805,-6.4269 10.8672,-7.5469 z"
        id="path881"
        transform="scale(0.7499994)"/>
    <path
        style="fill:#ffffff;stroke:#000000;stroke-width:0;stroke-miterlimit:4;stroke-dasharray:none;fill-opacity:1"
        d="m 2857.5723,1297.9961 c 9.7779,-0.034 7.6574,11.3461 1.6699,13.0586 -6.0534,1.7333 -13.4538,-6.8145 -3.7871,-12.8945 0.76,-0.11 1.4653,-0.1618 2.1172,-0.1641 z"
        id="path879"
        transform="scale(0.7499994)"/>
    <path
        style="fill:#ffffff;stroke:#000000;stroke-width:0;stroke-miterlimit:4;stroke-dasharray:none;fill-opacity:0.96078432"
        d="m 3944.6426,1360.002 c 0.64,4.84 1.5077,14.6793 3.4277,18.666 5.3067,10.9733 19.1463,11.76 29.9063,12 -6.6,2.6133 -13.2007,0.2921 -21.334,3.7988 -11.0934,4.7867 -10.6534,17.9612 -12,28.2012 -2.4,-6.04 -0.6121,-11.426 -3.4121,-18.666 -4.8667,-12.5601 -18.6133,-12 -29.92,-12 9.6267,-3.9334 21.5727,-0.4674 28.1993,-10.7208 4.64,-7.2 2.4928,-14.6392 5.1328,-21.2792 z"
        id="path877"
        transform="scale(0.7499994)"/>
    <path
        style="fill:none;stroke:#000000;stroke-width:0;stroke-miterlimit:4;stroke-dasharray:none"
        d="m 4927.6621,1491.1484 c 16.7298,-0.3919 16.5515,20.3377 3.6348,22.9727 -13.4134,2.7333 -20.3733,-16.7072 -5.3067,-22.8672 0.575,-0.058 1.1322,-0.093 1.6719,-0.1055 z"
        id="path875"
        transform="scale(0.7499994)"/>
    <path
        style="fill:#ffffff;stroke:#000000;stroke-width:0;fill-opacity:1;stroke-miterlimit:4;stroke-dasharray:none"
        d="m 3048.6426,1648.002 c 0.013,12.4266 0.3593,26.4527 14.666,30.746 4.4133,1.32 8.7873,1.2406 13.334,1.254 v 2.666 c -4.5467,0.013 -8.9207,-0.066 -13.334,1.2539 -14.3067,4.2933 -14.6527,18.3194 -14.666,30.7461 l -3.8535,-20 c -4.4134,-11.1867 -15.1605,-11.9734 -25.4805,-12 v -2.666 c 10.32,-0.027 21.0671,-0.8134 25.4805,-12 z"
        id="path873"
        transform="scale(0.7499994)"/>
    <path
        style="fill:#ffffff;stroke:#000000;stroke-width:0;fill-opacity:1;stroke-miterlimit:4;stroke-dasharray:none"
        d="m 4887.3105,1760.002 c 2.12,8.7333 0.7331,18.3593 4.7598,26.666 6.6268,13.68 27.1608,14.546 40.5742,14.666 -7.9334,3.1467 -28.4674,-0.7852 -37.8007,10.9082 -7.0267,8.8 -4.7733,20.6924 -7.5333,30.4258 l -4.1738,-24 c -6.2133,-16.6267 -26.3735,-16 -41.1601,-16 10.2934,-4.1334 27.8411,-0.4659 36.8144,-10.8125 8.76,-10.0934 5.6395,-24.5869 8.5195,-31.8535 z"
        id="path871"
        transform="scale(0.7499994)"/>
    <path
        style="fill:#ffffff;stroke:#000000;stroke-width:0;stroke-miterlimit:4;stroke-dasharray:none;fill-opacity:1"
        d="m 4125.9766,1802.668 c 2.4533,12.9466 4.6526,16.6406 18.666,17.334 l -10.6133,3.08 c -6.2533,3.2667 -6.8794,9.3593 -8.0527,15.586 l -2.3204,-9.2793 c -2.8133,-6.8 -9.9056,-7.7347 -16.3457,-8.0547 l 13.7989,-5.9063 z"
        id="path869"
        transform="scale(0.7499994)"/>
    <path
        style="fill:#ffffff;stroke:#000000;stroke-width:0;stroke-miterlimit:4;stroke-dasharray:none;fill-opacity:1"
        d="m 2105.9746,1804.002 c 0.04,11.32 1.4133,32.8527 9.6133,41.0527 8.5865,8.5733 30.6267,9.6133 42.3867,9.6133 -6.3068,2.4933 -22.3053,1.3598 -33.332,5.4531 -15.1732,5.6533 -16.0669,17.9608 -17.5469,31.8809 -0.76,7.08 -1.0944,6.9726 -1.1211,14.666 -2.2265,-5.6 -1.3991,-21.9467 -5.2656,-32 -7.1335,-18.4934 -31.1997,-18.666 -48.0664,-18.666 8.6401,-3.4267 31.3202,0.079 42.3867,-10.9473 11.1201,-11.08 7.492,-32.3461 10.9453,-41.0527 z"
        id="path867"
        transform="scale(0.7499994)"/>
    <path
        style="fill:#ffffff;stroke:#000000;stroke-width:0;fill-opacity:1;stroke-miterlimit:4;stroke-dasharray:none"
        d="m 2316.6543,2124.8809 c 10.9333,1.4266 8.9081,12.614 1.2812,13.414 -7.6932,0.8 -11.7612,-9.9207 -1.2812,-13.414 z"
        id="path865"
        transform="scale(0.7499994)"/>
    <path
        style="fill:#ffffff;stroke:#000000;stroke-width:0;fill-opacity:1;stroke-miterlimit:4;stroke-dasharray:none"
        d="m 1669.9121,2209.5352 c 3.7975,-0.1088 7.1763,0.7474 10.1563,4.1074 6.2,6.9733 3.1596,19.3318 -6.0938,21.7851 -16.3867,4.3334 -24.7733,-18.7062 -8,-25.5195 1.36,-0.1933 2.6717,-0.3368 3.9375,-0.373 z"
        id="Sélection #1"
        transform="scale(0.7499994)"/>
    <g
        id="g1052"
        style="fill:#db765f;fill-opacity:0.99509805;stroke:#000000;stroke-opacity:1;stroke-width:0;stroke-miterlimit:4;stroke-dasharray:none">
        <path
            sodipodi:nodetypes="ccccscsccccc"
            style="opacity:0.98999999;fill:url(#linearGradient3007);fill-opacity:1;fill-rule:nonzero;stroke:url(#radialGradient2983);stroke-width:0;stroke-miterlimit:4;stroke-dasharray:none;stroke-opacity:1"
            inkscape:connector-curvature="0"
            d="m 897.86013,1908.4754 c 5.01104,19.6433 -256.34618,500.8051 -548.3801,627.3846 -6.99201,4.0526 -35.18582,17.5483 -58.2056,26.5129 C 991.94469,2324.6385 1383.8065,2024.2589 1914.15,2132.52 c 303.5707,-126.2807 562.7368,-352.4234 832.1052,-495.149 52.7823,-27.9668 103.2703,-56.958 154.2249,-83.181 -426.5365,-92.0637 -931.3049,293.0175 -1501.0231,358.1626 -148.9554,17.0325 -329.6049,39.3979 -501.59687,-3.8772 z M 930.48,2234.19 v 0 0 0"
            id="Sélection #7"/>
    </g>
    <path
        id="Sélection #5"
        d="m 505.43415,1329.8088 6.44011,0.1721 c 6.66936,0.7037 11.5694,4.0385 14.76745,9.9273 0.56001,1.0365 1.63084,2.5971 2.13499,4.1977 0.50943,1.6174 1.45148,2.3839 1.27248,2.7044 -0.78732,2.3847 -5.77525,4.4696 -7.8287,5.6223 l -17.0968,8.9223 -53.44,28.6653 c -4.34974,2.3925 -27.53039,14.8523 -30.99762,15.546 -4.91123,2.8649 0.26028,0.7791 -0.31433,-1.9817 -0.23637,-1.1358 -1.15374,-3.834 -1.70474,-4.6593 -3.55013,-5.3174 -3.04772,-8.0023 -2.69647,-10.085 0.31187,-1.8491 1.282,-4.4879 2.05751,-6.2632 0.73867,-1.6904 1.92862,-6.5877 2.49198,-7.3705 5.59582,-7.7759 12.26298,-7.8215 19.9884,-11.9228 l 23.27225,-10.6164 z"
        inkscape:connector-curvature="0"
        style="fill:#5d1198;fill-opacity:1;stroke:#000000;stroke-width:0;stroke-miterlimit:4;stroke-dasharray:none"
        sodipodi:nodetypes="cccscccccsssssccc"/>
    <path
        inkscape:connector-curvature="0"
        style="fill:#5d1198;fill-opacity:1;stroke:none;stroke-width:0.98429263;stroke-opacity:0.95588235"
        id="Sélection #4"
        d="m 448.25721,1588.1759 c -5.12869,-3.606 -14.87716,-11.5565 -19.94578,-14.9561 l -26.61983,-16.4924 -35.21003,-23.0439 -25.77544,-16.8655 c -8.35888,-6.538 -12.06597,-20.4769 -8.60706,-30.3898 1.50201,-4.3196 5.23767,-10.4916 8.83225,-13.2826 l 29.66831,-16.065 c 7.45003,-4.6302 28.9653,-15.5409 30.46114,-17.7453 3.41015,8.1331 7.14312,30.1966 9.72531,40.7566 l 13.31723,37.5821 8.2101,24.4955 c 2.85385,7.8062 15.24048,39.6429 15.9438,46.0064 z"
        sodipodi:nodetypes="ccccccccccccc"/>
    <path
        d="m 661.97616,1477.008 c -4.88845,-1.5546 -15.29157,-22.6638 -19.98597,-29.4061 l -35.06987,-50.6797 c -10.95062,-19.3901 -24.8148,-30.9837 -37.45335,-45.8803 0,0 25.6433,-12.9648 32.9838,-16.8622 12.23415,-6.4956 31.35628,-18.957 45.41369,-14.8143 3.09393,0.918 6.15724,2.869 8.68945,4.8497 11.17765,8.7763 9.02001,20.4352 8.41772,33.0154 l -2.28655,73.5903 z"
        id="Sélection #6"
        inkscape:connector-curvature="0"
        style="fill:#5d1198;fill-opacity:0.84803922;stroke:none;stroke-width:0.98429263;stroke-opacity:1"
        sodipodi:nodetypes="ccccsccccc"/>
    <path
        d="m 3368.7523,2667.2323 -25.5013,-0.3161 C 2833.9634,2556.9013 2391.3002,2334.0667 1914.15,2132.52 l 264.8752,-135.0641 222.9807,-148.3342 232.1464,-153.8904 266.3278,-141.0413 c 318.0452,-118.005 557.1989,-31.861 751.0319,102.0132 131.0428,90.5071 235.7563,216.7423 348.5663,301.6658 L 4000,2667"
        id="Sans nom"
        inkscape:connector-curvature="0"
        style="fill:url(#linearGradient1199);fill-opacity:1;stroke:#000000;stroke-width:0;stroke-miterlimit:4;stroke-dasharray:none"
        sodipodi:nodetypes="cccccccscc"/>
    <path
        style="fill:#8c6a91;fill-opacity:0.9901962;stroke:#000000;stroke-width:0;stroke-miterlimit:4;stroke-dasharray:none;stroke-opacity:1"
        d="m 2017.8835,1103.4435 c -27.3405,137.5996 78.4728,269.5709 220.5286,296.2655 142.0553,26.6951 279.6026,-63.047 307.3984,-200.5606 l 0.3165,-1.5996 c 3.0785,-16.2185 4.5168,-32.6789 4.3004,-49.1479 -49.4649,-8.1931 -104.2445,-26.5491 -151.2117,-39.7121 -43.7474,-12.0892 -79.9615,-34.6814 -99.8955,-42.5498 -26.8761,-10.6085 -55.3037,-35.1867 -82.8356,-44.4509 -11.0742,-1.5416 -14.1502,-4.3431 -18.3639,-5.992 -20.4018,-4.0693 -93.5321,-16.55768 -136.0751,-9.2302 -10.6662,15.5491 -36.2061,57.0909 -44.1621,96.9776 z"
        id="path832"
        inkscape:connector-curvature="0"
        sodipodi:nodetypes="ccccccscccc"
        transform="scale(0.7499994)"/>
    <path
        style="fill:#77579e;fill-opacity:0.76470588;stroke:#000000;stroke-width:0;stroke-miterlimit:4;stroke-dasharray:none;stroke-opacity:1"
        d="m 1418.0004,803.99982 c -16.2476,68.6016 -1.5729,140.238 40.8022,199.18048 42.3751,58.9427 108.9868,100.3737 185.2098,115.1966 76.2232,14.8229 155.8273,1.826 221.3345,-36.1372 65.5072,-37.9632 111.563,-97.78948 128.0554,-166.34358 l 0.3925,-1.6611 c 3.614,-15.7151 8.0186,-38.5838 8.4162,-54.6202 -62.7392,11.6518 -145.9553,-7.9242 -207.7592,-26.7389 -17.2742,-5.5946 -39.857,-16.9208 -41.3658,-17.518 1.5325,-0.5867 -31.087,-9.224 -70.7834,-36.9424 -15.157,-10.5836 -16.3296,-12.767 -33.7134,-16.6441 -49.8353,-9.0954 -153.3847,-23.3551 -227.3247,42.3445 -0.5654,0.5024 -3.5732,-0.3565 -3.2641,-0.1161 z"
        id="path832-3"
        inkscape:connector-curvature="0"
        sodipodi:nodetypes="cscscccccscsc"/>
    <path
        style="fill:url(#linearGradient1148);fill-opacity:1;stroke:url(#linearGradient1191);stroke-width:0;stroke-linecap:butt;stroke-linejoin:miter;stroke-miterlimit:4;stroke-dasharray:none;stroke-opacity:0.67156863"
        d="m 422.52337,1372.265 c -32.21775,-8.4126 -57.28571,13.5613 -96.90089,-26.2904 -13.06938,-24.4957 -35.89181,-47.4908 -24.86013,-75.6943 25.5072,27.5028 41.71902,28.9786 57.41838,29.0195 24.20264,-21.8425 -39.38032,-62.6089 -55.99408,-96.8738 -10.43313,-27.6387 -2.85257,-51.1203 12.62103,-72.7805 5.5622,69.4523 30.59761,80.4849 51.23415,104.7142 17.76741,7.7241 0.0107,-56.2655 5.97526,-51.5559 28.59463,22.5784 77.046,108.0361 58.74686,-34.2245 50.25822,32.8103 41.29316,81.3914 40.3416,127.4783 -6.53512,37.8508 21.90876,4.5399 25.75039,-60.4141 47.07083,27.6837 25.27229,109.9808 8.57822,114.1653 l -38.80963,22.1778 z"
        id="path1066"
        inkscape:connector-curvature="0"
        sodipodi:nodetypes="cccccccscccccc"/>
    <path
        style="fill:url(#linearGradient3017);fill-opacity:1;stroke:#000000;stroke-width:0;stroke-linecap:butt;stroke-linejoin:miter;stroke-miterlimit:4;stroke-dasharray:none;stroke-opacity:1"
        d="m 0,2666.9994 3376.3687,-0.1044 C 2942.6752,2537.4355 2332.1523,2306.6805 1914.15,2132.52 1586.0051,1924.3607 1189.4183,2116.1149 817.93872,2304.9548 540.8919,2448.446 290.37091,2555.6252 0,2666.9994 Z"
        id="path3009"
        inkscape:connector-curvature="0"
        sodipodi:nodetypes="ccccc"/>
    <path
        style="opacity:0.98999999;fill:#dbc574;fill-opacity:1;fill-rule:nonzero;stroke:#f1b54b;stroke-width:0;stroke-miterlimit:4;stroke-dasharray:none;stroke-opacity:0.67156863"
        d="m 1648.8097,761.76193 c -36.4269,21.28693 -58.588,58.7278 -58.619,99.03613 -1e-4,64.46558 55.6152,116.72527 124.2202,116.72506 68.6044,-5.7e-4 124.2188,-52.26003 124.2187,-116.72506 -0.013,-6.38131 -0.6298,-12.09461 -1.7509,-18.38838 -60.6717,-16.79859 -153.2882,-75.43988 -188.0525,-80.64029 -0.01,0 -0.011,-0.008 -0.016,-0.008 z"
        id="path3027"
        inkscape:connector-curvature="0"
        sodipodi:nodetypes="cccccccc"/>
    <path
        style="fill:#cc5471;fill-opacity:0.98039216;stroke:#000000;stroke-width:0;stroke-linecap:butt;stroke-linejoin:miter;stroke-miterlimit:4;stroke-dasharray:none;stroke-opacity:1"
        d="m 4000.0314,1958.4315 c -75.4732,-57.0249 -147.7882,-132.187 -190.3272,-170.0858 41.9012,17.6205 86.9198,38.446 128.1187,47.8034 12.5907,2.8094 25.4669,4.1278 38.0576,5.8892 l 24.1176,2.5118 z"
        id="path3057"
        inkscape:connector-curvature="0"
        sodipodi:nodetypes="cccccc"/>
    <path
        style="fill:url(#linearGradient3067);fill-opacity:1;stroke:none;stroke-width:0;stroke-linecap:butt;stroke-linejoin:miter;stroke-miterlimit:4;stroke-dasharray:none;stroke-opacity:1"
        d="m 420.68606,1405.5662 c -14.05039,10.8806 -13.66845,17.0279 -19.62532,33.7691 8.40508,51.0594 30.21589,100.0644 47.19646,148.8406 44.5521,81.3901 175.87214,179.1256 227.23602,148.824 63.12152,-63.3404 8.39923,-205.4572 -13.51706,-259.9919 l -92.50922,-125.966 c -8.16408,-12.6875 -20.98365,-14.8225 -39.41777,-4.2317 z"
        id="path3059"
        inkscape:connector-curvature="0"
        sodipodi:nodetypes="cccccccc"/>
    <ellipse
        style="fill:#aeaeae;fill-opacity:1;stroke:none;stroke-width:1.00487649;stroke-opacity:1"
        id="path3946-5"
        cx="-1356.9106"
        cy="-1076.8141"
        rx="58.35511"
        ry="53.743752"
        transform="matrix(0.30213737,-0.9532644,-0.9532644,-0.30213737,0,0)"/>
    <ellipse
        style="fill:url(#linearGradient2521);fill-opacity:1.0;stroke:none;stroke-width:0.73821884;stroke-opacity:1"
        id="path3946"
        cx="-1357.4462"
        cy="-1076.8708"
        rx="42.543636"
        ry="39.784798"
        transform="matrix(0.30213737,-0.9532644,-0.9532644,-0.30213737,0,0)"/>
</svg>
