<?xml version="1.0" encoding="UTF-8" standalone="no"?>
<svg
    xmlns:osb="http://www.openswatchbook.org/uri/2009/osb"
    xmlns:dc="http://purl.org/dc/elements/1.1/"
    xmlns:cc="http://creativecommons.org/ns#"
    xmlns:rdf="http://www.w3.org/1999/02/22-rdf-syntax-ns#"
    xmlns="http://www.w3.org/2000/svg"
    xmlns:xlink="http://www.w3.org/1999/xlink"
    xmlns:sodipodi="http://sodipodi.sourceforge.net/DTD/sodipodi-0.dtd"
    xmlns:inkscape="http://www.inkscape.org/namespaces/inkscape"
    width="55.5556in"
    height="37.0417in"
    viewBox="0 0 4000 2667"
    version="1.1"
    id="svg3761"
    sodipodi:docname="main.svg"
    inkscape:version="0.92.5 (2060ec1f9f, 2020-04-08)">
    <metadata
        id="metadata3767">
        <rdf:RDF>
            <cc:Work
                rdf:about="">
                <dc:format>image/svg+xml</dc:format>
                <dc:type
                    rdf:resource="http://purl.org/dc/dcmitype/StillImage"/>
                <dc:title/>
            </cc:Work>
        </rdf:RDF>
    </metadata>
    <defs
        id="defs3765">
        <linearGradient
            inkscape:collect="always"
            id="linearGradient3065">
            <stop
                style="stop-color:#aeaeae;stop-opacity:1;"
                offset="0"
                id="stop3061"/>
            <stop
                style="stop-color:#aeaeae;stop-opacity:0;"
                offset="1"
                id="stop3063"/>
        </linearGradient>
        <linearGradient
            inkscape:collect="always"
            id="linearGradient3023">
            <stop
                style="stop-color:#7a48a9;stop-opacity:0.97549021"
                offset="0"
                id="stop3019"/>
            <stop
                style="stop-color:#2e2463;stop-opacity:0.99509805"
                offset="1"
                id="stop3021"/>
        </linearGradient>
        <linearGradient
            inkscape:collect="always"
            id="linearGradient3015">
            <stop
                style="stop-color:#ffc547;stop-opacity:1;"
                offset="0"
                id="stop3011"/>
            <stop
                style="stop-color:#cb5172;stop-opacity:1"
                offset="1"
                id="stop3013"/>
        </linearGradient>
        <linearGradient
            inkscape:collect="always"
            id="linearGradient3001">
            <stop
                style="stop-color:#89413e;stop-opacity:1"
                offset="0"
                id="stop2997"/>
            <stop
                id="stop3005"
                offset="0.40770003"
                style="stop-color:#df815b;stop-opacity:1"/>
            <stop
                style="stop-color:#e08658;stop-opacity:0.86274511"
                offset="1"
                id="stop2999"/>
        </linearGradient>
        <linearGradient
            inkscape:collect="always"
            id="linearGradient2981">
            <stop
                style="stop-color:#000000;stop-opacity:1;"
                offset="0"
                id="stop2977"/>
            <stop
                id="stop2995"
                offset="0.30259186"
                style="stop-color:#d56766;stop-opacity:1"/>
            <stop
                style="stop-color:#e08658;stop-opacity:0.86274511"
                offset="1"
                id="stop2979"/>
        </linearGradient>
        <linearGradient
            id="linearGradient1223"
            osb:paint="gradient">
            <stop
                style="stop-color:#000000;stop-opacity:1;"
                offset="0"
                id="stop1219"/>
            <stop
                style="stop-color:#000000;stop-opacity:0;"
                offset="1"
                id="stop1221"/>
        </linearGradient>
        <linearGradient
            inkscape:collect="always"
            id="linearGradient1146">
            <stop
                style="stop-color:#f5bc4a;stop-opacity:0.92156863"
                offset="0"
                id="stop1142"/>
            <stop
                style="stop-color:#d15b6e;stop-opacity:1"
                offset="1"
                id="stop1144"/>
        </linearGradient>
        <linearGradient
            inkscape:collect="always"
            xlink:href="#linearGradient1146"
            id="linearGradient1148"
            x1="786.24811"
            y1="647.01318"
            x2="832.7666"
            y2="593.64532"
            gradientUnits="userSpaceOnUse"/>
        <linearGradient
            inkscape:collect="always"
            xlink:href="#linearGradient1146"
            id="linearGradient1191"
            x1="732.16602"
            y1="638.9549"
            x2="924.36841"
            y2="638.9549"
            gradientUnits="userSpaceOnUse"/>
        <linearGradient
            inkscape:collect="always"
            xlink:href="#linearGradient1146"
            id="linearGradient1199"
            x1="2653.8799"
            y1="1879.8176"
            x2="3589.3162"
            y2="2505.3914"
            gradientUnits="userSpaceOnUse"/>
        <radialGradient
            inkscape:collect="always"
            xlink:href="#linearGradient2981"
            id="radialGradient2983"
            cx="1579.5646"
            cy="2057.6713"
            fx="1579.5646"
            fy="2057.6713"
            r="1320.9155"
            gradientTransform="matrix(1,0,0,0.390863,0,1253.4037)"
            gradientUnits="userSpaceOnUse"/>
        <linearGradient
            inkscape:collect="always"
            xlink:href="#linearGradient3001"
            id="linearGradient3007"
            x1="258.64911"
            y1="2057.6714"
            x2="2900.48"
            y2="2057.6714"
            gradientUnits="userSpaceOnUse"/>
        <linearGradient
            inkscape:collect="always"
            xlink:href="#linearGradient3015"
            id="linearGradient3017"
            x1="1352.7386"
            y1="2219.0017"
            x2="3349.8894"
            y2="2874.4507"
            gradientUnits="userSpaceOnUse"/>
        <radialGradient
            inkscape:collect="always"
            xlink:href="#linearGradient3023"
            id="radialGradient3025"
            cx="2459.0237"
            cy="1028.7079"
            fx="2459.0237"
            fy="1028.7079"
            r="2147.6837"
            gradientTransform="matrix(1.3243026,-0.72336865,0.52575925,0.96253033,-2063.0838,2380.6626)"
            gradientUnits="userSpaceOnUse"/>
        <linearGradient
            inkscape:collect="always"
            xlink:href="#linearGradient3065"
            id="linearGradient3067"
            x1="512.75146"
            y1="459.36316"
            x2="620.30145"
            y2="321.23465"
            gradientUnits="userSpaceOnUse"/>
    </defs>
    <sodipodi:namedview
        pagecolor="#ffffff"
        bordercolor="#666666"
        borderopacity="1"
        objecttolerance="10"
        gridtolerance="10"
        guidetolerance="10"
        inkscape:pageopacity="0"
        inkscape:pageshadow="2"
        inkscape:window-width="1920"
        inkscape:window-height="1016"
        id="namedview3763"
        showgrid="false"
        inkscape:zoom="0.16424907"
        inkscape:cx="2018.0212"
        inkscape:cy="1867.7103"
        inkscape:window-x="0"
        inkscape:window-y="27"
        inkscape:window-maximized="1"
        inkscape:current-layer="svg3761"/>
    <path
        style="fill:none;stroke:#000000;stroke-width:0;stroke-miterlimit:4;stroke-dasharray:none"
        d="m 4672.0039,0 c -14.6667,0.02666669 -42.6273,3.1996855 -57.334,5.6796875 l -8,2.2929687 h -9.332 l -22.668,5.0136718 -76.2265,15.734375 -18.0664,3.839844 -40,10.666015 -12.586,4.160157 -49.1211,13.080078 c -38.96,12.173343 -76.8934,26.652409 -114.7734,41.732423 l -56.8399,23.36133 -22.5332,11.17383 -20.3066,9.27929 -13.9199,7.78711 -51.4004,25.51953 -43.4668,25.86719 -50.8008,30.38672 -27.293,18.8789 -27.8261,17.72071 -20.8008,15.51953 -49.3867,36.12109 -17.3067,12.67969 -29.2519,24.3457 -38.7344,30.26758 -23.0391,21.24024 -7.7597,5.49218 -21.8946,18.38672 -12.5605,12.48047 -9.6387,7.73242 -13.4805,13.30664 -16.373,13.16016 -14.2676,14.7207 -11.332,9.01367 -15.3613,15.16016 -66.9864,63.54688 -36.8925,37.75976 -20.4414,18.24024 -98.6661,98.65234 -29.8925,31.62695 -74.1075,73.72071 -17.3867,18.21289 -18.1875,15.80078 -29.0664,26.3457 -14.7187,14.29297 -48.4004,38.50781 -44.4805,33.83985 -20.9199,13.16014 -59.1074,37.5332 -22.3985,11.334 -51.6133,25.8516 -38.2949,17.0683 -23.4258,7.8789 c -40,14.4667 -80.8146,27.6268 -122.6679,35.1602 l -8,1.9863 -22.666,3.3613 -8,2.2403 h -12 l -10.6661,2.7187 h -12 l -20,1.3594 -17.3339,1.334 -26.6661,1.334 h -21.3339 l -20,-1.334 -30.6661,-1.334 -18.6679,-1.6387 c -4,0.2667 -9.3322,0.6 -13.1055,0 l -5.7871,-2.373 h -11.7734 l -24,-4.9746 -9.2129,-0.6934 -7.0137,-2.0137 c -39.5734,-7.6533 -77.7068,-19.292 -115.7734,-32.7187 -25.2934,-8.92 -51.0809,-17.5876 -75.1875,-29.4941 l -27.252,-14.1465 -9.5742,-6.5332 -33.5332,-19.4004 c -29.5734,-15.32 -60.3725,-25.893 -93.1192,-31.6797 l -9.3339,-2.3203 h -8 c -8.2534,-0.92 -5.2661,-2.653 -18.6661,-2.6797 h -50.6679 c -13.4134,0.027 -10.346,1.7465 -18.666,2.5332 -37.7467,3.5467 -74.4409,17.0409 -108.2676,33.9609 -14.5334,7.2667 -42.5198,22.6652 -53.0664,34.1719 -20.64,-17.0267 -53.1075,-30.7199 -78.4942,-39.2266 -17.64,-5.9066 -35.2125,-11.5186 -53.5058,-14.9453 l -10.5469,-0.8398 -5.8262,-2.041 c -3.44,-0.5334 -9.2542,-0.28 -12.9609,0 l -26.666,-2.8926 -28,2.6133 c -18.56,0.027 -60.0807,8.6533 -77.334,16 -0.4,-16.0534 -11.5734,-47.74788 -18.3867,-62.89456 -9.2667,-20.62669 -26.4258,-47.29343 -41.7325,-63.77344 -7.1866,-7.73334 -14.8945,-13.83888 -23.2011,-20.18555 l -18.2129,-14.49414 c -31.7867,-22.03651 -85.348,-38.49793 -113.1328,-38.65234 h -38.666 c -11.2001,0.0267 -44.68,6.97184 -56,10.47851 -4.4267,1.38667 -26.6407,11.96019 -30.0274,10.85352 -2.7467,-0.89333 -7.6036,-12.16026 -9.0703,-14.93359 -5.7733,-10.85335 -13.8991,-17.53047 -22.2324,-26.73047 -19.3252,-16.38564 -29.9652,-25.20602 -46.5508,-32.00196 -8.2667,-1.8 -3.1604,-2.32065 -14.7871,-2.33398 h -28 c -5.72,0.0933 -22.0845,4.76935 -26.1953,6.85742 L 1108,784 c -4.2533,-9.52001 -7.8797,-11.31903 -13.6797,-18.3457 l -20.6797,-25.42774 -11.334,-12.42578 c -1.68,-3.30667 1.6539,-9.25315 2.5606,-13.14648 1.2,-5.14667 0.1605,-9.3744 -1.1328,-14.42774 -2.56,-10.12001 -12.7195,-14.01262 -14.4395,-19.27929 -1.2266,-3.72001 2.0662,-6.50726 3.8262,-12.94727 l 6.7871,-34.66602 c 2.52,-5.81333 11.3318,-13.41322 16.0918,-18.22656 l 34.2285,-35.54687 c 12.5467,-12.36001 18.7479,-18.96028 22.8653,-35.56055 0.2665,-3.65334 -0.3603,-7.07935 -0.9336,-10.66602 -3.8134,-23.33335 -23.653,-25.8809 -42.5997,-31.26757 L 1060,492.94727 l -28.5586,-8.04102 -64.05859,-18.5 c -9.82667,-2.8 -19.12294,-5.22431 -30.04883,-8.89844 l -34.3457,-38.82812 -9.60156,-7.17188 -10.7461,-10.54687 -25.30664,-20.52149 -16.65234,-11.29297 C 826.65496,358.73314 812.33335,351.02053 796,344.36719 778.09332,337.08718 756.42733,331.86687 737.33398,330.54688 L 716,328 c -31.76003,-0.36 -67.94599,-2.23896 -98.66602,4.73438 -7.42667,1.67999 -21.31999,2.86593 -27,7.58593 -6.2,5.13334 -7.14711,17.48034 -7.7871,25.01367 L 580.42773,376 l -3.09375,26.66602 c -0.37333,32.44002 -0.37383,61.25395 5.82618,93.33398 l 4.30664,14.66797 c 8.98667,31.36002 16.24061,47.67893 31.64062,76.26562 l 11.64063,21.05274 c 12.05334,19.06668 35.46597,45.47988 51.97265,61.22656 7.70668,7.34667 22.05253,13.68179 26.50586,22.8418 6.30667,12.98667 15.20146,51.25327 18.82813,66.61328 l 17.66601,62.66601 c 3.21334,11.66668 9.77362,40.97263 16.62696,49.2793 11.33334,13.76001 31.34631,17.53326 46.98632,8.91992 9.30668,-5.12 15.92075,-14.57314 23.10743,-22.14648 l 29.21289,-28 c 3.54667,-3.37334 13.77281,-14.46641 17.13281,-16.06641 4.34667,-2.08 10.88085,-0.10666 15.88086,0 8.98667,0.17334 15.73205,-1.19945 24.02539,-4.43945 4.08,-1.58667 10.82817,-6.79974 14.21484,-6.06641 2.80001,0.61334 6.90612,5.72003 9.43946,7.69336 4.61333,3.58667 7.999,4.06667 13.65234,4 h 11.77344 l 5.73437,-1.51953 c 1.37334,-0.33333 2.10544,-0.29333 3.41211,0 l 17.74805,15.57227 14.34573,12.61328 7.6406,5.50781 7.4004,6.97266 c 3.8133,3.14667 8.5871,4.59945 11.0937,9.43945 1.8134,3.50667 0.8516,11.30755 0.8516,15.57422 -0.04,26.00002 -1.8661,38.89326 9.5605,63.61328 12.9601,28.04002 34.348,47.29231 62.668,59.34575 l 26.4395,7.707 c -4.1867,5.8533 -4.6663,16.9333 -5.5996,24 l -2.2403,10.666 v 34.668 c -0.1466,11.48 0.7588,9.2126 2.1055,18.666 l 0.748,10.666 c 1.9334,11.8267 5.6131,23.681 9.3731,35.041 4.6933,14.2134 9.5598,27.919 17.1465,40.959 5.2133,8.9733 11.0391,16.8949 17.4258,24.9883 l 4.7207,6.959 7.8261,8.0937 9.8946,11.7324 c 13.9333,13.6934 29.5986,24.6282 46.332,34.5215 l 12.4805,7.6934 c 35.5867,18.4267 76.067,26.0137 115.7871,26.0137 -1.5334,8.6133 -2.6127,7.5586 -2.666,17.332 v 54.668 c 0.1066,8.5466 1.1049,7.7193 2.2382,14.666 l 0.7071,9.334 1.8945,8 5.293,24 c 11,39.04 26.5325,77.7857 51.1992,110.4257 13.44,17.7867 32.9064,41.0138 49.7598,55.4805 l 17.1464,14.2539 c 2.3334,1.8667 6.7878,4.3988 7.5078,7.4121 0.5467,2.2667 -1.2272,6.1878 -1.9472,8.4278 l -4.8672,18.666 c -3.1467,11.7333 -8.785,43.0393 -8.9316,54.666 v 42.668 c 0.013,9.24 3.0531,27.8653 4.8398,37.332 l 1.0918,9.334 c 6.9067,32.04 18.6671,65.8793 34.4805,94.666 33.6415,52.6771 78.9444,107.3846 79.5879,168.0019 -11.0885,49.4219 -22.2991,69.6595 -45.1231,128.5391 -3.7844,3.6124 -6.0672,8.9823 -9.5156,13.0703 -10.5166,12.4671 -8.6453,14.6216 -70.211,57.625 -40.4027,30.5272 -91.3051,54.6569 -128.3242,88.5781 l -14.5996,9.2539 c -13.4,10.7201 -26.5078,22.9205 -38.2012,35.4805 -103.4097,97.6841 -117.1638,234.836 -171.707,360.8399 l -12.6933,34.6132 -8.3868,17.4532 -39.5586,78.3203 c -36.7166,65.4036 -84.08032,120.0097 -132.45504,176.7871 -38.48708,44.738 -79.90645,76.0644 -122.67578,111.9414 -59.1151,44.8828 -120.00401,84.8933 -181.72461,125.3457 -66.23648,38.3834 -111.23333,58.9353 -166.85156,89.9648 l -32.10547,15.0879 -20.91797,9.0586 C 337.63579,3440.8212 37.750498,3528.4071 0,3556.002 H 5333.3379 V 0 Z"
        id="Sélection"
        transform="scale(0.7499994)"/>
    <path
        style="fill:url(#radialGradient3025);fill-opacity:1;stroke:#000000;stroke-width:0;stroke-miterlimit:4;stroke-dasharray:none"
        d="m 3510.5543,-0.07438363 -33.6054,-0.16590312 -67.6982,11.02527375 c -73.31,14.67 -143.5099,34.380341 -212.9998,62.150341 -94.7101,39.615712 -164.2871,77.573102 -245.4197,134.279192 -55.3972,39.30907 -108.5463,83.4687 -156.3998,124.42079 l -5.5005,5.3291 c -60.7317,51.84292 -126.5013,122.59293 -181.5101,173.87096 l -30.5903,31.04001 c -129.2907,139.49193 -248.2018,252.29658 -438.5797,302.50904 v 1.0005 h 2.001 c -3.81,0.63 -11.491,1.0506 -14.001,4.00049 -6.19,-0.99 -25.44,4.25963 -33,5.46967 -55.5197,9.93757 -117.7206,11.0397 -168.2797,5.57963 l -57.7206,-9.47025 -33,-7.57904 -0.999,1.9995 c 2.9,11.93999 1.5602,29.95992 -0.7998,41.99996 -11.68,59.51996 -65.5006,103.7004 -126.2006,103.00042 -11.41,-0.14002 -22.6408,-2.2296 -33.7206,-4.82962 -13.0519,-2.56335 -20.8341,-7.66942 -33.2798,-15.39989 -9.33,-5.88997 -20.1092,-15.30021 -27.4892,-23.4902 -26.0401,-28.87003 -36.6911,-70.38115 -29.0611,-108.28117 1.58,-7.88002 3.8711,-15.58948 6.9712,-22.99948 5.7913,-23.79043 29.0042,-38.59789 42.5771,-55.99653 l -0.9975,1.99657 1.0005,-1.99949 0.999,-2.001 c -46.1528,-10.60002 -96.0601,-11.02298 -137.7201,1.8003 -3.03,0.96 -6.5293,1.39972 -8.2793,4.19969 -6.17,-0.78 -10.7103,2.58068 -16.2803,4.76077 -13.9,5.43997 -27.2207,12.41954 -39.7207,20.57954 l -12,8.31007 c -1.9299,1.44997 -1.9494,5.36962 -4.4794,5.34959 -2.2001,-0.0203 -6.2432,-7.50007 -9.5201,-6.94777 l -13.0004,-5.75092 c -14.91,-8.20004 -28.8,-14.35041 -45,-19.63041 -51.07,-16.64998 -101.6599,-15.59991 -152.4798,1.33013 -0.49,-10.57005 -6.4596,-29.89616 -10.4096,-39.85616 -10.91,-27.50001 -31.83,-52.56376 -55.1099,-71.14378 -17.0568,-12.70273 -31.2826,-21.58579 -48,-28.20114 -7.26,-2.91001 -18.3395,-6.42952 -25.9995,-7.99951 -42.06,-8.60001 -75.84036,-3.6503 -115.00038,13.19969 -26.06706,-46.00652 -64.7143,-67.34646 -108.53751,-52.73872 l -3.94335,1.73876 c 34.82075,48.21856 66.56484,91.63132 92.47987,148.00037 L 895.4212,721.27466 797.53601,661.92069 c 0,0 -20.48189,-12.73642 -23.73193,-15.08641 0,0 0.15675,2.18513 0.15675,19.55126 v 6.82909 c 2.25637,22.01821 2.54909,29.27293 14.43606,44.26608 19.93161,29.38906 43.27692,32.36163 55.95843,37.42818 1.4688,0.58687 3.89617,-0.24458 3.48045,1.1367 -0.64103,2.12985 -16.17816,45.29104 2.08597,93.33982 1.74607,15.09592 8.23274,26.21713 14.75241,36.99747 4.95,8.57017 15.28657,22.52226 21.72651,30.03223 24.95001,29.12 56.28041,47.88094 93.7104,55.25096 7.65,1.49999 18.11736,3.84547 25.85744,3.85544 l 18.8027,0.8643 -1.5205,15.99899 c -5.5881,137.4303 83.3217,208.3806 100.9935,218.5926 1.0901,2.59 -0.853,7.3877 -1.623,10.4077 -3.02,11.95 -5.0796,19.5795 -6.6196,31.9995 -4.4949,20.8548 -3.4538,39.2322 -3.0425,56.5956 1.572,29.7983 10.3927,58.8057 22.6289,85.3461 21.5341,46.7077 40.6975,65.2463 51.6283,86.7744 5.94,12.97 13.1771,29.893 14.937,44.083 -0.3019,4.0217 1.2223,8.3276 0.5435,11.9326 -6.5805,34.9442 -18.1985,53.253 -33.9272,96.6444 -10.2505,28.2784 -108.2208,82.1578 -169.31973,129.8071 -64.21615,50.0803 -88.54013,106.6985 -101.58974,143.9076 106.00927,42.2477 288.14397,24.549 437.39027,14.7392 67.2149,-6.5097 134.1237,-12.7361 200.3593,-26.4046 93.9166,-19.3807 186.4796,-49.6455 276.6418,-81.7344 36.5984,-11.2777 73.7018,-19.2369 110.1503,-31.6206 142.3332,-48.359 282.8146,-107.2558 421.5038,-153.9336 188.0716,-63.2981 372.0652,-110.4049 556.5745,-75.3314 188.6253,-63.504 229.0609,-62.4745 229.0609,-62.4745 0,0 254.3577,-5.1267 315.3742,17.4892 73.4189,27.2128 151.6978,98.4699 205.9891,146.1181 108.7802,95.4693 186.2044,178.3625 348.4844,189.2039 L 4000.0002,0 Z"
        id="path899"
        inkscape:connector-curvature="0"
        sodipodi:nodetypes="ccccccccccccccccccccccccccccccccccccccccccccccccccscccscccccccccccscccssccscssccscccc"/>
    <path
        style="fill:#ffffff;stroke:#000000;stroke-width:0;stroke-miterlimit:4;stroke-dasharray:none;fill-opacity:1"
        d="m 4328.6426,140 2.8672,13.33398 c 4.0266,10.25335 12.6801,11.78667 22.4668,12 V 168 c -9.7867,0.21333 -18.4402,1.74666 -22.4668,12 l -2.8672,13.33398 -3.5332,-14.66796 C 4320.896,169.42601 4312.364,168.2 4303.3105,168 v -2.66602 c 9.0535,-0.2 17.5855,-1.42796 21.7989,-10.66796 z"
        transform="scale(0.7499994)"
        id="path897"/>
    <path
        style="fill:#ffffff;stroke:#000000;stroke-width:1.33333445;fill-opacity:1"
        d="m 4697.9766,277.90625 c 20.5866,0.24 20.2,25.73312 4,28.45313 -18.2001,3.05333 -25.0001,-23.50646 -4,-28.45313 z"
        transform="scale(0.7499994)"
        id="path895"/>
    <path
        style="fill:#ffffff;stroke:none;stroke-width:1.33333445;fill-opacity:1"
        d="m 4389.875,466.85156 c 2.7621,0.0932 5.3199,0.85469 7.7949,3.05469 6.7067,5.94667 5.8143,19.13398 -5.039,22.33398 -15.1734,4.48001 -25.0413,-17.91999 -7.9747,-25 1.8301,-0.26 3.5615,-0.44461 5.2188,-0.38867 z"
        transform="scale(0.7499994)"
        id="path893"/>
    <path
        style="fill:#ffffff;stroke:#000000;stroke-width:0;stroke-miterlimit:4;stroke-dasharray:none;fill-opacity:0.96078432"
        d="m 3684.6426,777.33398 c 0.04,13.88002 1.5606,24.40004 17.334,27.69336 3.7066,0.38668 6.946,0.29334 10.666,0 -7.12,3.93335 -11.2787,2.14641 -17.3321,5.06641 -10.7733,5.21334 -10.6546,15.61292 -10.6679,25.90625 -4.4934,-6.93334 -1.3198,-10.22536 -4.7598,-17.33203 -5.16,-10.66666 -18.1075,-11.52 -28.5742,-12 7.48,-2.96 19.9477,0.46653 27.041,-9.4668 4.8,-6.73335 1.7463,-12.84051 6.293,-19.86719 z"
        transform="scale(0.7499994)"
        id="path891"/>
    <path
        style="fill:#ffffff;stroke:#000000;stroke-width:0;stroke-miterlimit:4;stroke-dasharray:none;fill-opacity:0.96078432"
        d="m 4819.3105,881.33398 c 0.027,7.77334 0.559,20.46745 6.959,25.80079 5.5867,4.65335 14.161,4.83856 21.041,4.86523 v 2.66797 c -6.88,0.0267 -15.4543,0.21188 -21.041,4.86523 -6.4,5.33334 -6.9323,18.02744 -6.959,25.80078 L 4815.791,928 c -4.1733,-12.38666 -14.6411,-13.29203 -25.8144,-13.33203 V 912 c 10.32,-0.0267 21.0672,-0.81331 25.4804,-12 z"
        transform="scale(0.7499994)"
        id="path889"/>
    <path
        style="fill:#ffffff;stroke:#000000;stroke-width:0;fill-opacity:0.96078432;stroke-miterlimit:4;stroke-dasharray:none"
        d="m 4259.0879,1088.1973 c 2.76,0.014 5.3733,0.7679 7.6484,3.0429 4.7466,4.7467 4.3729,15.268 -3.4804,18.4414 -13.9467,5.6533 -22.932,-13.1341 -9.252,-20.8808 1.72,-0.355 3.428,-0.6123 5.084,-0.6035 z"
        transform="scale(0.7499994)"
        id="path887"/>
    <path
        style="fill:#ffffff;stroke:#000000;stroke-width:0;fill-opacity:1;stroke-miterlimit:4;stroke-dasharray:none"
        d="m 1287.3086,1176 c 0.067,20.7467 5.8527,26.2146 26.666,26.668 l -16,3.5332 c -10.28,4.6933 -10.6393,14.6934 -10.666,24.4668 l -3.8008,-16 c -4.6933,-10.8667 -15.4798,-10.6547 -25.5332,-10.668 7.76,-3.1067 16.9995,-0.7593 23.1328,-8.2793 4.6134,-5.6533 3.5879,-13.334 6.2012,-19.7207 z"
        transform="scale(0.7499994)"
        id="path885"/>
    <path
        style="fill:#ffffff;stroke:#000000;stroke-width:0;stroke-miterlimit:4;stroke-dasharray:none;fill-opacity:1"
        d="m 1603.0625,1282.1777 c 10.0736,-0.011 9.3937,10.9026 2.832,12.9434 -6.32,1.9733 -13.8665,-7.0396 -3.8398,-12.9063 0.3475,-0.024 0.6828,-0.037 1.0078,-0.037 z"
        transform="scale(0.7499994)"
        id="path883"/>
    <path
        style="fill:#ffffff;stroke:#000000;stroke-width:0;stroke-miterlimit:4;stroke-dasharray:none;fill-opacity:0.96078432"
        d="m 3549.9766,1288.5742 c 20.36,0.24 18.1327,25.5871 2.666,27.0938 -10.5467,1.0266 -17.6932,-10.1069 -13.5332,-19.5469 2.1466,-4.8533 6.0805,-6.4269 10.8672,-7.5469 z"
        transform="scale(0.7499994)"
        id="path881"/>
    <path
        style="fill:#ffffff;stroke:#000000;stroke-width:0;stroke-miterlimit:4;stroke-dasharray:none;fill-opacity:1"
        d="m 2857.5723,1297.9961 c 9.7779,-0.034 7.6574,11.3461 1.6699,13.0586 -6.0534,1.7333 -13.4538,-6.8145 -3.7871,-12.8945 0.76,-0.11 1.4653,-0.1618 2.1172,-0.1641 z"
        transform="scale(0.7499994)"
        id="path879"/>
    <path
        style="fill:#ffffff;stroke:#000000;stroke-width:0;stroke-miterlimit:4;stroke-dasharray:none;fill-opacity:0.96078432"
        d="m 3944.6426,1360.002 c 0.64,4.84 1.5077,14.6793 3.4277,18.666 5.3067,10.9733 19.1463,11.76 29.9063,12 -6.6,2.6133 -13.2007,0.2921 -21.334,3.7988 -11.0934,4.7867 -10.6534,17.9612 -12,28.2012 -2.4,-6.04 -0.6121,-11.426 -3.4121,-18.666 -4.8667,-12.5601 -18.6133,-12 -29.92,-12 9.6267,-3.9334 21.5727,-0.4674 28.1993,-10.7208 4.64,-7.2 2.4928,-14.6392 5.1328,-21.2792 z"
        transform="scale(0.7499994)"
        id="path877"/>
    <path
        style="fill:none;stroke:#000000;stroke-width:0;stroke-miterlimit:4;stroke-dasharray:none"
        d="m 4927.6621,1491.1484 c 16.7298,-0.3919 16.5515,20.3377 3.6348,22.9727 -13.4134,2.7333 -20.3733,-16.7072 -5.3067,-22.8672 0.575,-0.058 1.1322,-0.093 1.6719,-0.1055 z"
        transform="scale(0.7499994)"
        id="path875"/>
    <path
        style="fill:#ffffff;stroke:#000000;stroke-width:0;fill-opacity:1;stroke-miterlimit:4;stroke-dasharray:none"
        d="m 3048.6426,1648.002 c 0.013,12.4266 0.3593,26.4527 14.666,30.746 4.4133,1.32 8.7873,1.2406 13.334,1.254 v 2.666 c -4.5467,0.013 -8.9207,-0.066 -13.334,1.2539 -14.3067,4.2933 -14.6527,18.3194 -14.666,30.7461 l -3.8535,-20 c -4.4134,-11.1867 -15.1605,-11.9734 -25.4805,-12 v -2.666 c 10.32,-0.027 21.0671,-0.8134 25.4805,-12 z"
        transform="scale(0.7499994)"
        id="path873"/>
    <path
        style="fill:#ffffff;stroke:#000000;stroke-width:0;fill-opacity:1;stroke-miterlimit:4;stroke-dasharray:none"
        d="m 4887.3105,1760.002 c 2.12,8.7333 0.7331,18.3593 4.7598,26.666 6.6268,13.68 27.1608,14.546 40.5742,14.666 -7.9334,3.1467 -28.4674,-0.7852 -37.8007,10.9082 -7.0267,8.8 -4.7733,20.6924 -7.5333,30.4258 l -4.1738,-24 c -6.2133,-16.6267 -26.3735,-16 -41.1601,-16 10.2934,-4.1334 27.8411,-0.4659 36.8144,-10.8125 8.76,-10.0934 5.6395,-24.5869 8.5195,-31.8535 z"
        transform="scale(0.7499994)"
        id="path871"/>
    <path
        style="fill:#ffffff;stroke:#000000;stroke-width:0;stroke-miterlimit:4;stroke-dasharray:none;fill-opacity:1"
        d="m 4125.9766,1802.668 c 2.4533,12.9466 4.6526,16.6406 18.666,17.334 l -10.6133,3.08 c -6.2533,3.2667 -6.8794,9.3593 -8.0527,15.586 l -2.3204,-9.2793 c -2.8133,-6.8 -9.9056,-7.7347 -16.3457,-8.0547 l 13.7989,-5.9063 z"
        transform="scale(0.7499994)"
        id="path869"/>
    <path
        style="fill:#ffffff;stroke:#000000;stroke-width:0;stroke-miterlimit:4;stroke-dasharray:none;fill-opacity:1"
        d="m 2105.9746,1804.002 c 0.04,11.32 1.4133,32.8527 9.6133,41.0527 8.5865,8.5733 30.6267,9.6133 42.3867,9.6133 -6.3068,2.4933 -22.3053,1.3598 -33.332,5.4531 -15.1732,5.6533 -16.0669,17.9608 -17.5469,31.8809 -0.76,7.08 -1.0944,6.9726 -1.1211,14.666 -2.2265,-5.6 -1.3991,-21.9467 -5.2656,-32 -7.1335,-18.4934 -31.1997,-18.666 -48.0664,-18.666 8.6401,-3.4267 31.3202,0.079 42.3867,-10.9473 11.1201,-11.08 7.492,-32.3461 10.9453,-41.0527 z"
        transform="scale(0.7499994)"
        id="path867"/>
    <path
        style="fill:#ffffff;stroke:#000000;stroke-width:0;fill-opacity:1;stroke-miterlimit:4;stroke-dasharray:none"
        d="m 2316.6543,2124.8809 c 10.9333,1.4266 8.9081,12.614 1.2812,13.414 -7.6932,0.8 -11.7612,-9.9207 -1.2812,-13.414 z"
        transform="scale(0.7499994)"
        id="path865"/>
    <path
        style="fill:#ffffff;stroke:#000000;stroke-width:0;fill-opacity:1;stroke-miterlimit:4;stroke-dasharray:none"
        d="m 1669.9121,2209.5352 c 3.7975,-0.1088 7.1763,0.7474 10.1563,4.1074 6.2,6.9733 3.1596,19.3318 -6.0938,21.7851 -16.3867,4.3334 -24.7733,-18.7062 -8,-25.5195 1.36,-0.1933 2.6717,-0.3368 3.9375,-0.373 z"
        transform="scale(0.7499994)"
        id="Sélection #1"/>
    <g
        id="g1052"
        style="fill:#db765f;fill-opacity:0.99509805;stroke:#000000;stroke-opacity:1;stroke-width:0;stroke-miterlimit:4;stroke-dasharray:none">
        <path
            sodipodi:nodetypes="ccccccccccsccccccccscssccccc"
            style="opacity:0.98999999;fill:url(#linearGradient3007);fill-opacity:1;fill-rule:nonzero;stroke:url(#radialGradient2983);stroke-width:0;stroke-miterlimit:4;stroke-dasharray:none;stroke-opacity:1"
            inkscape:connector-curvature="0"
            d="m 1869.6607,1799.0373 -81.1807,23.2727 -28.72,9.22 c -257.6071,94.6913 -538.0327,115.0807 -816.78479,88.2188 -13.78161,-3.2136 -33.92233,-6.1521 -45.11508,-11.2734 -37.29776,110.573 -61.25011,202.0493 -129.79672,302.1954 -10.45429,19.5144 -81.66712,95.2079 -87.6418,103.2288 1.21,5.91 -89.49161,75.8104 -95.61161,78.9605 0.91,1.1899 -102.10997,71.7199 -102.65997,70.9999 -2.99,4.06 -134.39,74.34 -132.67,72 -6.99201,4.0526 -35.18582,17.5483 -58.2056,26.5129 -18.95704,7.3825 -34.2753,10.7828 -32.48242,11.2028 -1.74,4.23 99.01801,-27.0556 98.35802,-29.7157 0.49,2.88 81.66,-32.34 81.66,-32.34 -0.94,2.51 178.54997,-90.6 179.66997,-94 l 63,-36.33 c 74.70646,-43.5986 174.34783,-103.3085 249,-147 314.1571,-228.8314 601.182,-319.0803 944.67,-122.67 -2.64,0.11 38.33,21.34 39,21 303.5707,-126.2807 566.1386,-346.1801 832.1052,-495.149 52.1586,-29.2142 101.1549,-61.1888 154.2249,-83.181 -143.1734,-25.9903 -286.0318,-16.0096 -524.7328,63.1367 -105.1176,34.8539 -209.5006,72.9078 -311.1757,112.1702 -64.1368,24.7668 -131.1427,50.9883 -194.9109,69.5404 z M 930.48,2234.19 v 0 0 0"
            id="Sélection #7"/>
    </g>
    <path
        id="Sélection #5"
        d="m 796.60156,541.82507 1.7929,-6.35071 c 1.35254,-6.73974 -0.35649,-12.56474 -5.03269,-17.51703 -0.82396,-0.86883 -1.99534,-2.39968 -3.37738,-3.3887 -1.39655,-0.99941 -1.84532,-2.15818 -2.20716,-2.08252 -2.52683,0.0315 -6.04305,4.26206 -7.77303,5.91283 l -13.75599,13.95263 -43.74239,43.37201 c -3.61724,3.51182 -22.61602,22.31733 -24.33551,25.49268 -4.24111,3.91452 -0.66815,-0.49593 1.80533,0.92157 1.01761,0.58317 3.32677,2.31647 3.95087,3.11103 4.02112,5.11944 6.74928,5.4603 8.85371,5.76229 1.86851,0.26814 4.6946,0.13741 6.63317,-0.0708 1.84606,-0.19829 6.90525,0.1559 7.82744,-0.15236 9.15987,-3.06185 11.2305,-9.56721 17.51315,-15.85036 l 17.25839,-19.46638 z"
        inkscape:connector-curvature="0"
        style="fill:#5f50c5;stroke:#000000;stroke-width:0;fill-opacity:1;stroke-miterlimit:4;stroke-dasharray:none"
        sodipodi:nodetypes="cccscccccsssssccc"/>
    <path
        inkscape:connector-curvature="0"
        style="fill:#5f50c5;stroke:#5f50c5;stroke-width:1;fill-opacity:1;stroke-opacity:0.95588237"
        id="Sélection #4"
        d="m 531.3937,517.65998 c 1.89964,6.13269 6.56198,18.12928 8.28198,24.13928 l 7.72653,31.14156 11.39922,41.57191 8.34113,30.4315 c 3.73,10.2 15.97312,18.14503 26.53312,17.83503 4.6,-0.13 11.65581,-1.87 15.42581,-4.51999 l 24.42923,-24.03193 c 6.70616,-5.85 23.71275,-23.50701 26.28197,-24.28652 -10.14,-3.23 -27.56701,-15.74156 -36.13701,-22.14156 l -32,-24.67 -21,-15.62 c -6.62,-5.21 -33.39198,-27.18928 -39.28198,-29.84928 z"
        sodipodi:nodetypes="ccccccccccccc"/>
    <path
        d="m 703,343.13 c 0.005,5.26199 17.0902,21.97697 22.1302,28.65697 l 37.95,50 c 15.26973,16.71759 22.17537,33.86776 32.6218,50.84322 0,0 20.2318,-21.05701 26.2018,-27.02701 9.95,-9.95 27.7164,-24.78621 28.0164,-39.81621 0.06,-3.31 -0.88,-6.91 -2.01,-10 -5.02,-13.65 -16.85919,-15.1536 -29.10919,-18.4636 l -71.2828,-20.5718 z"
        id="Sélection #6"
        inkscape:connector-curvature="0"
        style="fill:#5f50c5;stroke:#5f50c5;stroke-width:1;stroke-opacity:1;fill-opacity:1"
        sodipodi:nodetypes="ccccsccccc"/>
    <ellipse
        style="fill:#5f50c5;stroke-width:0.7499994;fill-opacity:1;stroke:#5f50c5;stroke-opacity:1"
        id="path3946"
        cx="553.6557"
        cy="335.08243"
        rx="42.80843"
        ry="40.810699"/>
    <path
        d="m 3369.15,2663.52 v 0 l -691.5,-208.5 -763.5,-322.5 264.8752,-135.0641 222.9807,-148.3342 232.1464,-153.8904 L 2839.65,1580.52 c 66.0935,-30.605 130.2944,-50.4274 196.0781,-69.5067 19.3375,-5.6085 38.909,-11.5464 59.1447,-16.5671 7.0837,-1.0829 23.3707,-1.9432 35.7561,-2.7675 23.3713,-1.5554 54.1861,-2.1897 87.5578,-2.444 53.6746,-0.4091 104.0307,4.2534 101.2442,3.7638 -2.4224,-0.4257 44.7368,2.3872 87.0637,4.8034 37.6729,2.1506 69.5197,20.1162 69.5197,20.1162 -6.4587,-2.4654 78.8386,50.8568 102.9318,73.4796 35.2153,33.0662 93.0844,72.2961 89.487,76.6931 -1.3432,1.6418 182.2169,164.4292 182.2169,164.4292 L 4000.277,1942.1885 4000,2667"
        id="Sans nom"
        inkscape:connector-curvature="0"
        style="fill:url(#linearGradient1199);fill-opacity:1;stroke:#000000;stroke-width:0;stroke-miterlimit:4;stroke-dasharray:none"
        sodipodi:nodetypes="ccccccccscsssssssccc"/>
    <path
        style="fill:#8c6a91;fill-opacity:0.99019605;stroke:#000000;stroke-width:0;stroke-opacity:1;stroke-miterlimit:4;stroke-dasharray:none"
        d="m 2076.8196,1001.1445 c -39.9206,-10.70788 -50.7767,61.4644 -58.9361,102.299 -27.3405,137.5996 78.4728,269.5709 220.5286,296.2655 142.0553,26.6951 279.6026,-63.047 307.3984,-200.5606 l 0.3165,-1.5996 c 3.0785,-16.2185 4.5168,-32.6789 4.3004,-49.1479 -0.055,-4.1962 -18.7005,-5.2642 -39.0166,-8.131 -28.6627,-4.0446 -73.1612,-20.7945 -112.1951,-31.5811 -43.7474,-12.0892 -79.9615,-34.6814 -99.8955,-42.5498 -26.8761,-10.6085 -55.3037,-35.1867 -82.8356,-44.4509 -33.9875,-11.4364 -53.5622,-10.3848 -80.2742,-17.9308 -30.7486,-8.68626 -59.0469,-2.6557 -59.3908,-2.6128 z"
        id="path832"
        inkscape:connector-curvature="0"
        sodipodi:nodetypes="cccccssssssc"
        transform="scale(0.7499994)"/>
    <path
        style="fill:#77579e;fill-opacity:0.7647059;stroke:#000000;stroke-width:0;stroke-miterlimit:4;stroke-dasharray:none;stroke-opacity:1"
        d="m 1468.7288,771.74421 c -27.2293,10.45304 -48.4753,27.5927 -49.3082,31.08328 -16.2476,68.60162 -1.5729,140.23803 40.8022,199.18061 42.3751,58.9427 108.9868,100.3737 185.2098,115.1966 76.2232,14.8229 155.8273,1.826 221.3345,-36.1372 65.5072,-37.9632 111.563,-97.78956 128.0554,-166.34363 l 0.3925,-1.6611 c 3.614,-15.71511 5.6321,-31.68957 6.0297,-47.72598 0.01,-0.3849 -3.5454,0.37777 -10.1323,-0.20483 -20.2978,-1.79527 -70.8363,-0.62377 -112.8894,-10.89202 -23.7645,-5.80267 -58.6049,-14.84556 -82.351,-22.53628 -17.2742,-5.59462 -39.857,-16.92081 -41.3658,-17.51803 1.5325,-0.58673 -31.087,-9.22402 -70.7834,-36.94242 -15.157,-10.58355 -32.5503,-14.58592 -49.9341,-18.46304 -25.3142,-5.64577 -51.3996,-8.31247 -77.0958,-8.13659 -39.5408,0.27067 -67.6629,13.30716 -87.9641,21.10063 z"
        id="path832-3"
        inkscape:connector-curvature="0"
        sodipodi:nodetypes="scscsccsssscssss"/>
    <path
        style="fill:url(#linearGradient1148);fill-opacity:1;stroke:url(#linearGradient1191);stroke-width:0;stroke-linecap:butt;stroke-linejoin:miter;stroke-miterlimit:4;stroke-dasharray:none;stroke-opacity:0.67156863"
        d="m 730.67134,609.74071 43.7383,37.69947 109.09075,67.73084 42.80403,22.84688 -22.223,-42.13603 -34.60308,-55.80785 -36.12498,-52.93142 -34.40424,-40.88885 -2.34753,-4.42868 -33.07169,31.07631 z"
        id="path1066"
        inkscape:connector-curvature="0"
        sodipodi:nodetypes="ccccccccccc"/>
    <path
        style="fill:url(#linearGradient3017);fill-opacity:1;stroke:#000000;stroke-width:0;stroke-linecap:butt;stroke-linejoin:miter;stroke-miterlimit:4;stroke-dasharray:none;stroke-opacity:1"
        d="m 0,2666.9994 3369.15,-3.4794 c 130.9081,10.9068 -346.4812,-108.5359 -519.7218,-162.8038 L 2646.0129,2436.14 1914.15,2132.52 c -76.6895,-43.0935 -148.3192,-88.027 -270.6838,-114.5114 -79.873,-13.4737 -154.59,-33.6198 -269.606,-1.6144 -71.594,14.4857 -138.2333,38.8808 -203.4152,66.1906 -178.17824,92.504 -337.00963,204.3548 -505.30937,306.7373 L 438.81002,2511.52 235.70341,2576.5934 Z"
        id="path3009"
        inkscape:connector-curvature="0"
        sodipodi:nodetypes="cccccccccccc"/>
    <path
        style="opacity:0.98999999;fill:#dbc574;fill-opacity:1;fill-rule:nonzero;stroke:#f1b54b;stroke-width:0;stroke-miterlimit:4;stroke-dasharray:none;stroke-opacity:0.67156863"
        d="m 1648.8097,761.76193 a 124.2198,116.72481 0 0 0 -58.619,99.03613 124.2198,116.72481 0 0 0 124.2202,116.72506 124.2198,116.72481 0 0 0 124.2187,-116.72506 124.2198,116.72481 0 0 0 -1.7041,-19.04463 c -1.1303,-0.18441 -2.2594,-0.37864 -3.3829,-0.60056 -2.1591,-0.42872 -4.3134,-0.87714 -6.4576,-1.37351 -2.1629,-0.48473 -4.3219,-0.98574 -6.4592,-1.57268 -2.1626,-0.57872 -4.318,-1.18484 -6.4666,-1.81204 -2.2141,-0.62812 -4.4286,-1.25851 -6.6125,-1.98442 -2.2113,-0.74296 -4.4133,-1.51043 -6.5853,-2.36047 -2.4331,-0.93163 -4.8638,-1.87285 -7.2811,-2.84367 -2.64,-1.0477 -5.2796,-2.09486 -7.8899,-3.21371 -2.7311,-1.13879 -5.4509,-2.3046 -8.1603,-3.49325 -2.7878,-1.22662 -5.5712,-2.4623 -8.3377,-3.7355 -2.4556,-1.15964 -4.9106,-2.3234 -7.3217,-3.57194 -2.171,-1.12799 -4.335,-2.26632 -6.5102,-3.38624 -2.0974,-1.10264 -4.181,-2.23306 -6.2728,-3.34598 -2.3968,-1.25425 -4.8165,-2.46207 -7.2196,-3.7043 -2.5385,-1.29313 -5.0892,-2.56451 -7.6208,-3.87081 -1.9838,-1.00302 -3.9639,-2.01342 -5.9602,-2.99224 -1.9019,-0.95126 -3.8296,-1.84956 -5.7347,-2.79458 -1.9046,-0.95796 -3.8126,-1.90793 -5.6987,-2.90159 -1.8836,-0.98521 -3.7678,-1.97118 -5.6401,-2.97739 -1.7957,-0.94807 -3.5792,-1.91661 -5.3561,-2.89862 -1.7633,-0.95599 -3.5424,-1.88358 -5.305,-2.84063 -1.9404,-1.04244 -3.8665,-2.10848 -5.7993,-3.1647 -1.9937,-1.05964 -3.9841,-2.12651 -6.0083,-3.129 -1.7867,-0.89639 -3.5869,-1.76903 -5.3951,-2.62212 -1.4188,-0.64919 -2.8406,-1.28888 -4.2846,-1.8819 -1.3153,-0.54919 -2.6277,-1.10645 -3.9509,-1.63662 -1.0553,-0.43525 -2.11,-0.87264 -3.1755,-1.28278 -0.9088,-0.35109 -1.817,-0.7008 -2.7381,-1.01977 -1.0095,-0.35564 -2.0131,-0.72811 -3.0192,-1.09252 -1.0301,-0.37619 -2.0662,-0.73687 -3.0883,-1.13422 -0.8832,-0.34058 -1.7692,-0.67454 -2.6585,-0.99891 -0.5541,-0.20153 -1.1142,-0.38541 -1.6816,-0.54698 -0.6086,-0.18784 -1.2325,-0.32171 -1.8425,-0.50543 -0.7866,-0.20991 -1.5668,-0.44394 -2.3504,-0.66442 -0.9426,-0.27315 -1.8801,-0.56258 -2.8088,-0.8785 -1.0179,-0.35908 -2.0388,-0.71321 -3.0252,-1.15204 -0.01,0 -0.011,-0.008 -0.016,-0.008 z"
        id="path3027"
        inkscape:connector-curvature="0"/>
    <path
        style="fill:#cc5471;fill-opacity:0.98039216;stroke:#000000;stroke-width:0;stroke-linecap:butt;stroke-linejoin:miter;stroke-miterlimit:4;stroke-dasharray:none;stroke-opacity:1"
        d="m 4000.277,1942.1885 c -49.9299,-36.5833 -100.6513,-73.5623 -149.627,-109.6685 -40.007,-33.3461 -76.3393,-67.9172 -114.5089,-101.8758 l 58.9258,43.589 c 15.4546,11.2181 32.7234,20.9826 49.2514,29.6507 16.4513,8.6279 31.3555,13.1549 46.4023,19.5887 15.7959,3.9356 31.3064,9.1519 47.1023,12.6765 12.5907,2.8094 25.4669,4.1278 38.0576,5.8892 l 23.5082,2.4884 z"
        id="path3057"
        inkscape:connector-curvature="0"
        sodipodi:nodetypes="ccccscsccc"/>
    <path
        style="fill:url(#linearGradient3067);fill-opacity:1;stroke:#000000;stroke-width:0;stroke-linecap:butt;stroke-linejoin:miter;stroke-miterlimit:4;stroke-dasharray:none;stroke-opacity:1"
        d="m 698.17031,601.21626 -13.52087,7.84012 -24.83676,0.88443 L 635.79782,597.227 531.3937,517.65997 501.99175,485.81708 c -20.85486,-21.13336 -40.22476,-48.20659 -56.78411,-86.52199 -11.31133,-24.16343 -21.07116,-87.42905 -17.16394,-88.51131 -4.55546,-18.53345 6.16355,-35.27858 12.02693,-55.89579 22.9859,-16.14083 37.62179,-15.58165 52.19795,-14.90299 l 44.73099,6.0148 82.43416,26.76141 L 703,343.13 l 92.70196,129.50019 -7.92472,39.85592 z"
        id="path3059"
        inkscape:connector-curvature="0"
        sodipodi:nodetypes="cccccccccccccccc"/>
</svg>
